<?xml version="1.0" encoding="utf-8"?>
<svg style="fill-opacity:1; color-rendering:auto; color-interpolation:auto; text-rendering:auto; stroke:black; stroke-linecap:square; stroke-miterlimit:10; shape-rendering:auto; stroke-opacity:1; fill:black; stroke-dasharray:none; font-weight:normal; stroke-width:1; font-family:'Dialog'; font-style:normal; stroke-linejoin:miter; font-size:12; stroke-dashoffset:0; image-rendering:auto;" width="649" height="392" xmlns="http://www.w3.org/2000/svg">
  <g>
    <defs id="defs1">
      <clipPath clipPathUnits="userSpaceOnUse" id="clipPath1">
        <path d="M0 0 L649 0 L649 392 L0 392 L0 0 Z"/>
      </clipPath>
      <clipPath clipPathUnits="userSpaceOnUse" id="clipPath2">
        <path d="M-245.3182 273.1818 L241.4318 273.1818 L241.4318 567.1818 L-245.3182 567.1818 L-245.3182 273.1818 Z"/>
      </clipPath>
      <clipPath clipPathUnits="userSpaceOnUse" id="clipPath3">
        <path d="M-245.9091 -70.2656 L240.8409 -70.2656 L240.8409 223.7344 L-245.9091 223.7344 L-245.9091 -70.2656 Z"/>
      </clipPath>
      <clipPath clipPathUnits="userSpaceOnUse" id="clipPath4">
        <path d="M-245.9091 -56.1328 L240.8409 -56.1328 L240.8409 237.8672 L-245.9091 237.8672 L-245.9091 -56.1328 Z"/>
      </clipPath>
      <clipPath clipPathUnits="userSpaceOnUse" id="clipPath5">
        <path d="M-280.6594 -26 L206.0906 -26 L206.0906 268 L-280.6594 268 L-280.6594 -26 Z"/>
      </clipPath>
      <clipPath clipPathUnits="userSpaceOnUse" id="clipPath6">
        <path d="M-246.3182 -274.8807 L240.4318 -274.8807 L240.4318 19.1193 L-246.3182 19.1193 L-246.3182 -274.8807 Z"/>
      </clipPath>
      <clipPath clipPathUnits="userSpaceOnUse" id="clipPath7">
        <path d="M-246.3182 -260.7479 L240.4318 -260.7479 L240.4318 33.2521 L-246.3182 33.2521 L-246.3182 -260.7479 Z"/>
      </clipPath>
      <clipPath clipPathUnits="userSpaceOnUse" id="clipPath8">
        <path d="M-246.3182 -246.6151 L240.4318 -246.6151 L240.4318 47.3849 L-246.3182 47.3849 L-246.3182 -246.6151 Z"/>
      </clipPath>
      <clipPath clipPathUnits="userSpaceOnUse" id="clipPath10">
        <path d="M-246.3182 -210.3494 L240.4318 -210.3494 L240.4318 83.6506 L-246.3182 83.6506 L-246.3182 -210.3494 Z"/>
      </clipPath>
      <clipPath clipPathUnits="userSpaceOnUse" id="clipPath11">
        <path d="M-246.3182 -196.2166 L240.4318 -196.2166 L240.4318 97.7834 L-246.3182 97.7834 L-246.3182 -196.2166 Z"/>
      </clipPath>
      <clipPath clipPathUnits="userSpaceOnUse" id="clipPath12">
        <path d="M-246.3182 -182.0838 L240.4318 -182.0838 L240.4318 111.9162 L-246.3182 111.9162 L-246.3182 -182.0838 Z"/>
      </clipPath>
      <clipPath clipPathUnits="userSpaceOnUse" id="clipPath13">
        <path d="M-246.3182 -167.951 L240.4318 -167.951 L240.4318 126.049 L-246.3182 126.049 L-246.3182 -167.951 Z"/>
      </clipPath>
      <clipPath clipPathUnits="userSpaceOnUse" id="clipPath14">
        <path d="M-296.7422 -145.8182 L190.0078 -145.8182 L190.0078 148.1818 L-296.7422 148.1818 L-296.7422 -145.8182 Z"/>
      </clipPath>
      <clipPath clipPathUnits="userSpaceOnUse" id="clipPath15">
        <path d="M-259.866 -117.737 L226.884 -117.737 L226.884 176.263 L-259.866 176.263 L-259.866 -117.737 Z"/>
      </clipPath>
      <clipPath clipPathUnits="userSpaceOnUse" id="clipPath16">
        <path d="M-226.4189 -116.7666 L260.3311 -116.7666 L260.3311 177.2334 L-226.4189 177.2334 L-226.4189 -116.7666 Z"/>
      </clipPath>
      <clipPath clipPathUnits="userSpaceOnUse" id="clipPath17">
        <path d="M-382.8852 -114.9301 L103.8649 -114.9301 L103.8649 179.0699 L-382.8852 179.0699 L-382.8852 -114.9301 Z"/>
      </clipPath>
      <clipPath clipPathUnits="userSpaceOnUse" id="clipPath18">
        <path d="M-341.5846 -116.8468 L145.1654 -116.8468 L145.1654 177.1532 L-341.5846 177.1532 L-341.5846 -116.8468 Z"/>
      </clipPath>
      <clipPath clipPathUnits="userSpaceOnUse" id="clipPath19">
        <path d="M-404.0714 -225.476 L82.6786 -225.476 L82.6786 68.524 L-404.0714 68.524 L-404.0714 -225.476 Z"/>
      </clipPath>
      <clipPath clipPathUnits="userSpaceOnUse" id="clipPath20">
        <path d="M-406.1608 -258.7487 L80.5892 -258.7487 L80.5892 35.2513 L-406.1608 35.2513 L-406.1608 -258.7487 Z"/>
      </clipPath>
      <clipPath clipPathUnits="userSpaceOnUse" id="clipPath21">
        <path d="M-190.8182 -219.5486 L295.9318 -219.5486 L295.9318 74.4513 L-190.8182 74.4513 L-190.8182 -219.5486 Z"/>
      </clipPath>
      <clipPath clipPathUnits="userSpaceOnUse" id="clipPath22">
        <path d="M-206.3182 -255.5486 L280.4318 -255.5486 L280.4318 38.4514 L-206.3182 38.4514 L-206.3182 -255.5486 Z"/>
      </clipPath>
      <clipPath clipPathUnits="userSpaceOnUse" id="clipPath23">
        <path d="M-20 -62.9964 L466.75 -62.9964 L466.75 231.0036 L-20 231.0036 L-20 -62.9964 Z"/>
      </clipPath>
      <clipPath clipPathUnits="userSpaceOnUse" id="clipPath24">
        <path d="M-43.4917 -32.8636 L443.2583 -32.8636 L443.2583 261.1364 L-43.4917 261.1364 L-43.4917 -32.8636 Z"/>
      </clipPath>
      <clipPath clipPathUnits="userSpaceOnUse" id="clipPath25">
        <path d="M-144.8885 -49.2518 L341.8615 -49.2518 L341.8615 244.7482 L-144.8885 244.7482 L-144.8885 -49.2518 Z"/>
      </clipPath>
      <clipPath clipPathUnits="userSpaceOnUse" id="clipPath26">
        <path d="M-212.9091 -78.8881 L273.8409 -78.8881 L273.8409 215.1119 L-212.9091 215.1119 L-212.9091 -78.8881 Z"/>
      </clipPath>
    </defs>
    <g style="fill:white; stroke:white;">
      <rect x="0" y="0" width="649" style="clip-path:url(#clipPath1); stroke:none;" height="392"/>
    </g>
    <g transform="scale(1.3333,1.3333) translate(245.3182,-273.1818)" style="fill:rgb(255,255,204); text-rendering:geometricPrecision; stroke-width:2; shape-rendering:crispEdges; stroke:rgb(255,255,204);">
      <rect x="-9.4091" y="283.1818" width="158.2438" style="clip-path:url(#clipPath2); stroke:none;" height="69.3984"/>
      <rect x="-9.4091" y="283.1818" width="158.2438" style="clip-path:url(#clipPath2); fill:none; stroke:black;" height="69.3984"/>
    </g>
    <g style="text-rendering:optimizeLegibility; stroke-width:2; font-family:sans-serif;" transform="matrix(1.3333,0,0,1.3333,327.0909,-364.2424) translate(0.5909,343.4474)">
      <path d="M4.3359 0 L4.3359 -3.0352 L1.3008 -3.0352 L1.3008 -3.9023 L4.3359 -3.9023 L4.3359 -6.9375 L5.2031 -6.9375 L5.2031 -3.9023 L8.2383 -3.9023 L8.2383 -3.0352 L5.2031 -3.0352 L5.2031 0 ZM17.7715 -0.8086 Q16.7344 0.1465 15.7734 0.1465 Q14.9824 0.1465 14.4609 -0.3486 Q13.9395 -0.8438 13.9395 -1.5996 Q13.9395 -2.6426 14.8154 -3.2021 Q15.6914 -3.7617 17.3262 -3.7617 L17.6016 -3.7617 L17.6016 -4.5293 Q17.6016 -5.6367 16.4648 -5.6367 Q15.5508 -5.6367 14.4902 -5.0742 L14.4902 -6.0293 Q15.6562 -6.5039 16.6758 -6.5039 Q17.7422 -6.5039 18.249 -6.0234 Q18.7559 -5.543 18.7559 -4.5293 L18.7559 -1.6465 Q18.7559 -0.6562 19.3652 -0.6562 Q19.4414 -0.6562 19.5879 -0.6797 L19.6699 -0.041 Q19.2773 0.1465 18.8027 0.1465 Q17.9941 0.1465 17.7715 -0.8086 ZM17.6016 -1.4355 L17.6016 -3.082 L17.2148 -3.0938 Q16.2656 -3.0938 15.6797 -2.7334 Q15.0938 -2.373 15.0938 -1.7871 Q15.0938 -1.3711 15.3867 -1.084 Q15.6797 -0.7969 16.1016 -0.7969 Q16.8223 -0.7969 17.6016 -1.4355 ZM25.2012 0 L25.2012 -1.1953 Q24.498 0.1465 23.0801 0.1465 Q21.9316 0.1465 21.2725 -0.6914 Q20.6133 -1.5293 20.6133 -2.9824 Q20.6133 -4.5703 21.3604 -5.5371 Q22.1074 -6.5039 23.3262 -6.5039 Q24.457 -6.5039 25.2012 -5.6367 L25.2012 -9.252 L26.3613 -9.252 L26.3613 0 ZM25.2012 -4.8457 Q24.3047 -5.6367 23.502 -5.6367 Q21.8438 -5.6367 21.8438 -3.0996 Q21.8438 -0.8672 23.3203 -0.8672 Q24.2812 -0.8672 25.2012 -1.916 ZM32.7539 0 L32.7539 -1.1953 Q32.0508 0.1465 30.6328 0.1465 Q29.4844 0.1465 28.8252 -0.6914 Q28.166 -1.5293 28.166 -2.9824 Q28.166 -4.5703 28.9131 -5.5371 Q29.6602 -6.5039 30.8789 -6.5039 Q32.0098 -6.5039 32.7539 -5.6367 L32.7539 -9.252 L33.9141 -9.252 L33.9141 0 ZM32.7539 -4.8457 Q31.8574 -5.6367 31.0547 -5.6367 Q29.3965 -5.6367 29.3965 -3.0996 Q29.3965 -0.8672 30.873 -0.8672 Q31.834 -0.8672 32.7539 -1.916 ZM35.0684 2.0215 L35.0684 1.1543 L41.0684 1.1543 L41.0684 2.0215 ZM43.5996 -5.4961 L43.5996 0 L42.4395 0 L42.4395 -5.4961 L41.5371 -5.4961 L41.5371 -6.3633 L42.4395 -6.3633 L42.4395 -7.125 Q42.4395 -9.3984 44.5137 -9.3984 Q45.0938 -9.3984 45.832 -9.2051 L45.832 -8.291 Q45.0527 -8.5312 44.584 -8.5312 Q44.0156 -8.5312 43.8076 -8.2588 Q43.5996 -7.9863 43.5996 -7.248 L43.5996 -6.3633 L45.1875 -6.3633 L45.1875 -5.4961 ZM46.6348 0 L46.6348 -6.3633 L47.7891 -6.3633 L47.7891 -5.168 Q48.4746 -6.5039 49.7812 -6.5039 Q49.957 -6.5039 50.1504 -6.4746 L50.1504 -5.3965 Q49.8516 -5.4961 49.623 -5.4961 Q48.5273 -5.4961 47.7891 -4.1953 L47.7891 0 ZM54.8262 -0.8086 Q53.7891 0.1465 52.8281 0.1465 Q52.0371 0.1465 51.5156 -0.3486 Q50.9941 -0.8438 50.9941 -1.5996 Q50.9941 -2.6426 51.8701 -3.2021 Q52.7461 -3.7617 54.3809 -3.7617 L54.6562 -3.7617 L54.6562 -4.5293 Q54.6562 -5.6367 53.5195 -5.6367 Q52.6055 -5.6367 51.5449 -5.0742 L51.5449 -6.0293 Q52.7109 -6.5039 53.7305 -6.5039 Q54.7969 -6.5039 55.3037 -6.0234 Q55.8105 -5.543 55.8105 -4.5293 L55.8105 -1.6465 Q55.8105 -0.6562 56.4199 -0.6562 Q56.4961 -0.6562 56.6426 -0.6797 L56.7246 -0.041 Q56.332 0.1465 55.8574 0.1465 Q55.0488 0.1465 54.8262 -0.8086 ZM54.6562 -1.4355 L54.6562 -3.082 L54.2695 -3.0938 Q53.3203 -3.0938 52.7344 -2.7334 Q52.1484 -2.373 52.1484 -1.7871 Q52.1484 -1.3711 52.4414 -1.084 Q52.7344 -0.7969 53.1562 -0.7969 Q53.877 -0.7969 54.6562 -1.4355 ZM58.1719 0 L58.1719 -6.3633 L59.3262 -6.3633 L59.3262 -5.168 Q60.1699 -6.5039 61.4941 -6.5039 Q62.7715 -6.5039 63.2344 -5.168 Q64.0547 -6.5098 65.3672 -6.5098 Q66.2109 -6.5098 66.6738 -6.0146 Q67.1367 -5.5195 67.1367 -4.6289 L67.1367 0 L65.9766 0 L65.9766 -4.4473 Q65.9766 -5.5371 65.1152 -5.5371 Q64.2188 -5.5371 63.2344 -4.2656 L63.2344 0 L62.0742 0 L62.0742 -4.4473 Q62.0742 -5.543 61.1953 -5.543 Q60.3223 -5.543 59.3262 -4.2656 L59.3262 0 ZM74.0391 -0.2051 Q72.8789 0.1465 72.0527 0.1465 Q70.6465 0.1465 69.7588 -0.7881 Q68.8711 -1.7227 68.8711 -3.2109 Q68.8711 -4.6582 69.6533 -5.584 Q70.4355 -6.5098 71.6543 -6.5098 Q72.8086 -6.5098 73.4385 -5.6895 Q74.0684 -4.8691 74.0684 -3.3574 L74.0625 -3 L70.0488 -3 Q70.3008 -0.7324 72.2695 -0.7324 Q72.9902 -0.7324 74.0391 -1.1191 ZM70.1016 -3.8672 L72.9082 -3.8672 Q72.9082 -5.6426 71.584 -5.6426 Q70.2539 -5.6426 70.1016 -3.8672 ZM78.375 0.9375 L78.375 1.7344 Q77.1094 0.873 76.3682 -0.6064 Q75.627 -2.0859 75.627 -3.7617 Q75.627 -5.4316 76.3682 -6.9111 Q77.1094 -8.3906 78.375 -9.252 L78.375 -8.4551 Q77.5137 -7.5176 77.1475 -6.4395 Q76.7812 -5.3613 76.7812 -3.7617 Q76.7812 -2.1562 77.1475 -1.0781 Q77.5137 0 78.375 0.9375 ZM79.2422 0.9375 L79.2422 1.7344 Q80.5078 0.873 81.249 -0.6064 Q81.9902 -2.0859 81.9902 -3.7617 Q81.9902 -5.4316 81.249 -6.9111 Q80.5078 -8.3906 79.2422 -9.252 L79.2422 -8.4551 Q80.1035 -7.5176 80.4697 -6.4395 Q80.8359 -5.3613 80.8359 -3.7617 Q80.8359 -2.1562 80.4697 -1.0781 Q80.1035 0 79.2422 0.9375 ZM87.8262 0 L87.8262 -1.1543 L88.9805 -1.1543 L88.9805 0 ZM87.8262 -5.2031 L87.8262 -6.3633 L88.9805 -6.3633 L88.9805 -5.2031 ZM96.5742 0 L94.207 -6.3633 L95.3613 -6.3633 L97.2129 -1.4121 L99.1641 -6.3633 L100.2422 -6.3633 L97.7285 0 ZM103.957 0.1465 Q102.5918 0.1465 101.7773 -0.7588 Q100.9629 -1.6641 100.9629 -3.1816 Q100.9629 -4.7168 101.7803 -5.6104 Q102.5977 -6.5039 103.998 -6.5039 Q105.3984 -6.5039 106.2158 -5.6104 Q107.0332 -4.7168 107.0332 -3.1934 Q107.0332 -1.6348 106.2129 -0.7441 Q105.3926 0.1465 103.957 0.1465 ZM103.9746 -0.7207 Q105.8086 -0.7207 105.8086 -3.1934 Q105.8086 -5.6367 103.998 -5.6367 Q102.1934 -5.6367 102.1934 -3.1816 Q102.1934 -0.7207 103.9746 -0.7207 ZM108.8379 0 L108.8379 -6.3633 L109.9922 -6.3633 L109.9922 0 ZM108.8379 -7.5176 L108.8379 -8.6719 L109.9922 -8.6719 L109.9922 -7.5176 ZM116.3906 0 L116.3906 -1.1953 Q115.6875 0.1465 114.2695 0.1465 Q113.1211 0.1465 112.4619 -0.6914 Q111.8027 -1.5293 111.8027 -2.9824 Q111.8027 -4.5703 112.5498 -5.5371 Q113.2969 -6.5039 114.5156 -6.5039 Q115.6465 -6.5039 116.3906 -5.6367 L116.3906 -9.252 L117.5508 -9.252 L117.5508 0 ZM116.3906 -4.8457 Q115.4941 -5.6367 114.6914 -5.6367 Q113.0332 -5.6367 113.0332 -3.0996 Q113.0332 -0.8672 114.5098 -0.8672 Q115.4707 -0.8672 116.3906 -1.916 Z" style="stroke:none; clip-path:url(#clipPath3);"/>
    </g>
    <g style="text-rendering:optimizeLegibility; stroke-width:2; font-family:sans-serif;" transform="matrix(1.3333,0,0,1.3333,327.0909,-364.2424) translate(0.5909,329.3146)">
      <path d="M4.3359 0 L4.3359 -3.0352 L1.3008 -3.0352 L1.3008 -3.9023 L4.3359 -3.9023 L4.3359 -6.9375 L5.2031 -6.9375 L5.2031 -3.9023 L8.2383 -3.9023 L8.2383 -3.0352 L5.2031 -3.0352 L5.2031 0 ZM16.1777 0.1465 Q15.3867 0.1465 14.2559 -0.2227 L14.2559 -1.2832 Q15.3867 -0.7207 16.2246 -0.7207 Q16.7227 -0.7207 17.0508 -0.9902 Q17.3789 -1.2598 17.3789 -1.6641 Q17.3789 -2.2559 16.459 -2.6426 L15.7852 -2.9297 Q14.291 -3.5508 14.291 -4.7168 Q14.291 -5.5488 14.8799 -6.0264 Q15.4688 -6.5039 16.4941 -6.5039 Q17.0273 -6.5039 17.8125 -6.3574 L18.0527 -6.3105 L18.0527 -5.3496 Q17.0859 -5.6367 16.5176 -5.6367 Q15.4043 -5.6367 15.4043 -4.8281 Q15.4043 -4.3066 16.248 -3.9492 L16.8047 -3.7148 Q17.748 -3.3164 18.1406 -2.874 Q18.5332 -2.4316 18.5332 -1.7695 Q18.5332 -0.9316 17.8711 -0.3926 Q17.209 0.1465 16.1777 0.1465 ZM23.0918 0.1465 Q21.8027 0.1465 20.9531 -0.8086 Q20.1035 -1.7637 20.1035 -3.2168 Q20.1035 -4.7695 20.9443 -5.6367 Q21.7852 -6.5039 23.291 -6.5039 Q24.0352 -6.5039 24.9551 -6.2988 L24.9551 -5.332 Q23.9766 -5.6191 23.3613 -5.6191 Q22.4766 -5.6191 21.9404 -4.9541 Q21.4043 -4.2891 21.4043 -3.1816 Q21.4043 -2.1094 21.9551 -1.4473 Q22.5059 -0.7852 23.3965 -0.7852 Q24.1875 -0.7852 25.0254 -1.1895 L25.0254 -0.1934 Q23.9062 0.1465 23.0918 0.1465 ZM29.2441 0.1465 Q27.8789 0.1465 27.0645 -0.7588 Q26.25 -1.6641 26.25 -3.1816 Q26.25 -4.7168 27.0674 -5.6104 Q27.8848 -6.5039 29.2852 -6.5039 Q30.6855 -6.5039 31.5029 -5.6104 Q32.3203 -4.7168 32.3203 -3.1934 Q32.3203 -1.6348 31.5 -0.7441 Q30.6797 0.1465 29.2441 0.1465 ZM29.2617 -0.7207 Q31.0957 -0.7207 31.0957 -3.1934 Q31.0957 -5.6367 29.2852 -5.6367 Q27.4805 -5.6367 27.4805 -3.1816 Q27.4805 -0.7207 29.2617 -0.7207 ZM34.125 0 L34.125 -6.3633 L35.2793 -6.3633 L35.2793 -5.168 Q35.9648 -6.5039 37.2715 -6.5039 Q37.4473 -6.5039 37.6406 -6.4746 L37.6406 -5.3965 Q37.3418 -5.4961 37.1133 -5.4961 Q36.0176 -5.4961 35.2793 -4.1953 L35.2793 0 ZM39.0352 0 L39.0352 -6.3633 L40.1895 -6.3633 L40.1895 0 ZM39.0352 -7.5176 L39.0352 -8.6719 L40.1895 -8.6719 L40.1895 -7.5176 ZM42.5039 0 L42.5039 -6.3633 L43.6582 -6.3633 L43.6582 -5.168 Q44.5723 -6.5039 45.8965 -6.5039 Q46.7227 -6.5039 47.2148 -5.9795 Q47.707 -5.4551 47.707 -4.5703 L47.707 0 L46.5527 0 L46.5527 -4.1953 Q46.5527 -4.9043 46.3447 -5.2061 Q46.1367 -5.5078 45.6562 -5.5078 Q44.5957 -5.5078 43.6582 -4.1191 L43.6582 0 ZM49.9746 2.1152 L50.1094 1.1133 Q51.1113 1.5879 52.084 1.5879 Q54.0352 1.5879 54.0352 -0.4805 L54.0352 -1.4824 Q53.3965 -0.1465 51.9375 -0.1465 Q50.7949 -0.1465 50.1211 -0.9785 Q49.4473 -1.8105 49.4473 -3.2227 Q49.4473 -4.6758 50.2148 -5.5898 Q50.9824 -6.5039 52.2012 -6.5039 Q53.2676 -6.5039 54.0352 -5.6367 L54.0352 -6.3633 L55.1953 -6.3633 L55.1953 -1.7344 Q55.1953 -0.2402 55.04 0.4775 Q54.8848 1.1953 54.457 1.6523 Q53.7012 2.4551 52.1074 2.4551 Q50.9941 2.4551 49.9746 2.1152 ZM54.0352 -2.2031 L54.0352 -4.8457 Q53.2734 -5.6367 52.377 -5.6367 Q51.5801 -5.6367 51.1289 -4.998 Q50.6777 -4.3594 50.6777 -3.2461 Q50.6777 -1.1543 52.1484 -1.1543 Q53.1504 -1.1543 54.0352 -2.2031 ZM59.748 0.9375 L59.748 1.7344 Q58.4824 0.873 57.7412 -0.6064 Q57 -2.0859 57 -3.7617 Q57 -5.4316 57.7412 -6.9111 Q58.4824 -8.3906 59.748 -9.252 L59.748 -8.4551 Q58.8867 -7.5176 58.5205 -6.4395 Q58.1543 -5.3613 58.1543 -3.7617 Q58.1543 -2.1562 58.5205 -1.0781 Q58.8867 0 59.748 0.9375 ZM60.6152 0.9375 L60.6152 1.7344 Q61.8809 0.873 62.6221 -0.6064 Q63.3633 -2.0859 63.3633 -3.7617 Q63.3633 -5.4316 62.6221 -6.9111 Q61.8809 -8.3906 60.6152 -9.252 L60.6152 -8.4551 Q61.4766 -7.5176 61.8428 -6.4395 Q62.209 -5.3613 62.209 -3.7617 Q62.209 -2.1562 61.8428 -1.0781 Q61.4766 0 60.6152 0.9375 ZM69.1992 0 L69.1992 -1.1543 L70.3535 -1.1543 L70.3535 0 ZM69.1992 -5.2031 L69.1992 -6.3633 L70.3535 -6.3633 L70.3535 -5.2031 ZM77.9473 0 L75.5801 -6.3633 L76.7344 -6.3633 L78.5859 -1.4121 L80.5371 -6.3633 L81.6152 -6.3633 L79.1016 0 ZM85.3301 0.1465 Q83.9648 0.1465 83.1504 -0.7588 Q82.3359 -1.6641 82.3359 -3.1816 Q82.3359 -4.7168 83.1533 -5.6104 Q83.9707 -6.5039 85.3711 -6.5039 Q86.7715 -6.5039 87.5889 -5.6104 Q88.4062 -4.7168 88.4062 -3.1934 Q88.4062 -1.6348 87.5859 -0.7441 Q86.7656 0.1465 85.3301 0.1465 ZM85.3477 -0.7207 Q87.1816 -0.7207 87.1816 -3.1934 Q87.1816 -5.6367 85.3711 -5.6367 Q83.5664 -5.6367 83.5664 -3.1816 Q83.5664 -0.7207 85.3477 -0.7207 ZM90.2109 0 L90.2109 -6.3633 L91.3652 -6.3633 L91.3652 0 ZM90.2109 -7.5176 L90.2109 -8.6719 L91.3652 -8.6719 L91.3652 -7.5176 ZM97.7637 0 L97.7637 -1.1953 Q97.0605 0.1465 95.6426 0.1465 Q94.4941 0.1465 93.835 -0.6914 Q93.1758 -1.5293 93.1758 -2.9824 Q93.1758 -4.5703 93.9229 -5.5371 Q94.6699 -6.5039 95.8887 -6.5039 Q97.0195 -6.5039 97.7637 -5.6367 L97.7637 -9.252 L98.9238 -9.252 L98.9238 0 ZM97.7637 -4.8457 Q96.8672 -5.6367 96.0645 -5.6367 Q94.4062 -5.6367 94.4062 -3.0996 Q94.4062 -0.8672 95.8828 -0.8672 Q96.8438 -0.8672 97.7637 -1.916 Z" style="stroke:none; clip-path:url(#clipPath4);"/>
    </g>
    <g style="font-family:sans-serif; text-rendering:optimizeLegibility;" transform="matrix(1.3333,0,0,1.3333,327.0909,-364.2424)">
      <line x1="-9.4091" x2="148.8347" y1="313.3146" style="fill:none; clip-path:url(#clipPath2);" y2="313.3146"/>
      <line x1="-9.4091" x2="148.8347" y1="305.3146" style="fill:none; clip-path:url(#clipPath2);" y2="305.3146"/>
    </g>
    <g style="text-rendering:optimizeLegibility; font-weight:bold; font-family:sans-serif;" transform="matrix(1.3333,0,0,1.3333,327.0909,-364.2424) translate(35.3412,299.1818)">
      <path d="M8.0098 -0.2051 Q6.3809 0.2168 5.1973 0.2168 Q2.9531 0.2168 1.749 -0.9639 Q0.5449 -2.1445 0.5449 -4.3477 Q0.5449 -6.5332 1.749 -7.7109 Q2.9531 -8.8887 5.1797 -8.8887 Q6.6035 -8.8887 8.0039 -8.5547 L8.0039 -7.1426 Q6.3809 -7.6992 5.3379 -7.6992 Q3.9609 -7.6992 3.2109 -6.8203 Q2.4609 -5.9414 2.4609 -4.3301 Q2.4609 -2.7715 3.2637 -1.8838 Q4.0664 -0.9961 5.4785 -0.9961 Q5.7891 -0.9961 6.2051 -1.084 L6.2051 -3.9375 L8.0098 -3.9375 ZM13.1836 -0.6914 Q12.3164 0.1465 11.3262 0.1465 Q10.4824 0.1465 9.9551 -0.3691 Q9.4277 -0.8848 9.4277 -1.7051 Q9.4277 -2.7715 10.2803 -3.3486 Q11.1328 -3.9258 12.7207 -3.9258 L13.1836 -3.9258 L13.1836 -4.5117 Q13.1836 -5.5137 12.041 -5.5137 Q11.0273 -5.5137 9.9902 -4.9395 L9.9902 -6.1348 Q11.168 -6.5801 12.3223 -6.5801 Q14.8477 -6.5801 14.8477 -4.5703 L14.8477 -1.7227 Q14.8477 -0.9668 15.334 -0.9668 Q15.4219 -0.9668 15.5625 -0.9902 L15.6035 -0.0176 Q15.0527 0.1465 14.6309 0.1465 Q13.5645 0.1465 13.2598 -0.6914 ZM13.1836 -1.623 L13.1836 -2.9297 L12.7734 -2.9297 Q11.0918 -2.9297 11.0918 -1.875 Q11.0918 -1.5176 11.335 -1.2744 Q11.5781 -1.0312 11.9355 -1.0312 Q12.5449 -1.0312 13.1836 -1.623 ZM17.0859 0 L17.0859 -6.4336 L18.75 -6.4336 L18.75 -5.2207 Q19.5117 -6.5801 20.918 -6.5801 Q21.6445 -6.5801 22.1133 -6.2227 Q22.582 -5.8652 22.6875 -5.2207 Q23.5898 -6.5801 24.8672 -6.5801 Q26.6309 -6.5801 26.6309 -4.6348 L26.6309 0 L24.9668 0 L24.9668 -4.0664 Q24.9668 -5.209 24.2051 -5.209 Q23.4258 -5.209 22.6875 -4.084 L22.6875 0 L21.0234 0 L21.0234 -4.0664 Q21.0234 -5.2148 20.2559 -5.2148 Q19.4883 -5.2148 18.75 -4.084 L18.75 0 ZM33.9609 -0.2168 Q32.7246 0.1465 31.6172 0.1465 Q30.0059 0.1465 29.0742 -0.7676 Q28.1426 -1.6816 28.1426 -3.2637 Q28.1426 -4.7578 28.9951 -5.6689 Q29.8477 -6.5801 31.248 -6.5801 Q32.6602 -6.5801 33.3105 -5.6895 Q33.9609 -4.7988 33.9609 -2.8711 L29.9707 -2.8711 Q30.1465 -1.0312 31.9922 -1.0312 Q32.8652 -1.0312 33.9609 -1.4355 ZM29.9473 -3.8496 L32.2559 -3.8496 Q32.2559 -5.4961 31.1953 -5.4961 Q30.1172 -5.4961 29.9473 -3.8496 ZM35.2676 -0.0762 L35.2676 -1.5645 Q36.668 -0.9785 37.6641 -0.9785 Q38.3613 -0.9785 38.7627 -1.2891 Q39.1641 -1.5996 39.1641 -2.1328 Q39.1641 -2.5547 38.9121 -2.8447 Q38.6602 -3.1348 37.957 -3.5332 L37.377 -3.8555 Q36.2109 -4.5117 35.7305 -5.1123 Q35.25 -5.7129 35.25 -6.5156 Q35.25 -7.5879 36.0381 -8.2383 Q36.8262 -8.8887 38.1211 -8.8887 Q39.1582 -8.8887 40.459 -8.5898 L40.459 -7.2012 Q39.1289 -7.6992 38.3555 -7.6992 Q37.7578 -7.6992 37.3975 -7.4326 Q37.0371 -7.166 37.0371 -6.7324 Q37.0371 -6.375 37.2891 -6.1055 Q37.541 -5.8359 38.2383 -5.4434 L38.8594 -5.0977 Q40.1133 -4.3945 40.5879 -3.8027 Q41.0625 -3.2109 41.0625 -2.3613 Q41.0625 -1.1543 40.166 -0.4688 Q39.2695 0.2168 37.6934 0.2168 Q36.6504 0.2168 35.2676 -0.0762 ZM47.3555 -0.1406 Q46.2773 0.1465 45.3574 0.1465 Q43.8164 0.1465 42.9229 -0.7588 Q42.0293 -1.6641 42.0293 -3.2227 Q42.0293 -4.7988 42.9492 -5.6895 Q43.8691 -6.5801 45.4922 -6.5801 Q46.2773 -6.5801 47.3027 -6.3281 L47.3027 -5.0742 Q46.2363 -5.4199 45.5977 -5.4199 Q44.8184 -5.4199 44.3438 -4.8223 Q43.8691 -4.2246 43.8691 -3.2344 Q43.8691 -2.2207 44.3818 -1.6113 Q44.8945 -1.002 45.75 -1.002 Q46.5293 -1.002 47.3555 -1.3418 ZM51.6973 0.1465 Q50.1914 0.1465 49.3037 -0.7646 Q48.416 -1.6758 48.416 -3.2168 Q48.416 -4.7754 49.3096 -5.6777 Q50.2031 -6.5801 51.7383 -6.5801 Q53.2793 -6.5801 54.1729 -5.6777 Q55.0664 -4.7754 55.0664 -3.2285 Q55.0664 -1.6465 54.1699 -0.75 Q53.2734 0.1465 51.6973 0.1465 ZM51.7266 -0.9375 Q53.2207 -0.9375 53.2207 -3.2285 Q53.2207 -4.2773 52.8252 -4.8867 Q52.4297 -5.4961 51.7383 -5.4961 Q51.0527 -5.4961 50.6572 -4.8867 Q50.2617 -4.2773 50.2617 -3.2168 Q50.2617 -2.168 50.6543 -1.5527 Q51.0469 -0.9375 51.7266 -0.9375 ZM56.6602 0 L56.6602 -6.4336 L58.3945 -6.4336 L58.3945 -5.2207 Q59.0684 -6.5801 60.4453 -6.5801 Q60.6094 -6.5801 60.7676 -6.5449 L60.7676 -4.998 Q60.3984 -5.1328 60.082 -5.1328 Q59.0449 -5.1328 58.3945 -4.084 L58.3945 0 ZM67.3535 -0.2168 Q66.1172 0.1465 65.0098 0.1465 Q63.3984 0.1465 62.4668 -0.7676 Q61.5352 -1.6816 61.5352 -3.2637 Q61.5352 -4.7578 62.3877 -5.6689 Q63.2402 -6.5801 64.6406 -6.5801 Q66.0527 -6.5801 66.7031 -5.6895 Q67.3535 -4.7988 67.3535 -2.8711 L63.3633 -2.8711 Q63.5391 -1.0312 65.3848 -1.0312 Q66.2578 -1.0312 67.3535 -1.4355 ZM63.3398 -3.8496 L65.6484 -3.8496 Q65.6484 -5.4961 64.5879 -5.4961 Q63.5098 -5.4961 63.3398 -3.8496 Z" style="stroke:none; clip-path:url(#clipPath5);"/>
    </g>
    <g transform="matrix(1.3333, 0, 0, 1.200437, 327.090912, -310.698517)" style="fill: rgb(255, 255, 204); text-rendering: geometricprecision; font-family: sans-serif; shape-rendering: crispedges; stroke: rgb(255, 255, 204); font-weight: bold; stroke-width: 2;">
      <rect x="-9" y="403" width="159.2971" style="clip-path:url(#clipPath2); stroke:none;" height="154.1953"/>
      <rect x="-9" y="403" width="159.2971" style="clip-path:url(#clipPath2); fill:none; stroke:black;" height="154.1953"/>
    </g>
    <g style="text-rendering:optimizeLegibility; stroke-width:2; font-family:sans-serif;" transform="matrix(1.3333, 0, 0, 1.3333, 326.276794, 346.005737)">
      <path d="M4.3359 0 L4.3359 -3.0352 L1.3008 -3.0352 L1.3008 -3.9023 L4.3359 -3.9023 L4.3359 -6.9375 L5.2031 -6.9375 L5.2031 -3.9023 L8.2383 -3.9023 L8.2383 -3.0352 L5.2031 -3.0352 L5.2031 0 ZM16.1777 0.1465 Q15.3867 0.1465 14.2559 -0.2227 L14.2559 -1.2832 Q15.3867 -0.7207 16.2246 -0.7207 Q16.7227 -0.7207 17.0508 -0.9902 Q17.3789 -1.2598 17.3789 -1.6641 Q17.3789 -2.2559 16.459 -2.6426 L15.7852 -2.9297 Q14.291 -3.5508 14.291 -4.7168 Q14.291 -5.5488 14.8799 -6.0264 Q15.4688 -6.5039 16.4941 -6.5039 Q17.0273 -6.5039 17.8125 -6.3574 L18.0527 -6.3105 L18.0527 -5.3496 Q17.0859 -5.6367 16.5176 -5.6367 Q15.4043 -5.6367 15.4043 -4.8281 Q15.4043 -4.3066 16.248 -3.9492 L16.8047 -3.7148 Q17.748 -3.3164 18.1406 -2.874 Q18.5332 -2.4316 18.5332 -1.7695 Q18.5332 -0.9316 17.8711 -0.3926 Q17.209 0.1465 16.1777 0.1465 ZM22.5176 0.1465 Q21.6387 0.1465 21.1465 -0.3574 Q20.6543 -0.8613 20.6543 -1.7578 L20.6543 -5.4961 L19.8574 -5.4961 L19.8574 -6.3633 L20.6543 -6.3633 L20.6543 -7.5176 L21.8086 -7.6289 L21.8086 -6.3633 L23.4727 -6.3633 L23.4727 -5.4961 L21.8086 -5.4961 L21.8086 -1.9688 Q21.8086 -0.7207 22.8867 -0.7207 Q23.1152 -0.7207 23.4434 -0.7969 L23.4434 0 Q22.9102 0.1465 22.5176 0.1465 ZM25.0957 0 L25.0957 -6.3633 L26.25 -6.3633 L26.25 -5.168 Q26.9355 -6.5039 28.2422 -6.5039 Q28.418 -6.5039 28.6113 -6.4746 L28.6113 -5.3965 Q28.3125 -5.4961 28.084 -5.4961 Q26.9883 -5.4961 26.25 -4.1953 L26.25 0 ZM30.0059 0 L30.0059 -6.3633 L31.1602 -6.3633 L31.1602 0 ZM30.0059 -7.5176 L30.0059 -8.6719 L31.1602 -8.6719 L31.1602 -7.5176 ZM33.4746 0 L33.4746 -9.252 L34.6289 -9.252 L34.6289 -3.2754 L37.3242 -6.3633 L38.5664 -6.3633 L35.9941 -3.3926 L39.0996 0 L37.623 0 L34.6289 -3.2637 L34.6289 0 ZM45.1523 -0.2051 Q43.9922 0.1465 43.166 0.1465 Q41.7598 0.1465 40.8721 -0.7881 Q39.9844 -1.7227 39.9844 -3.2109 Q39.9844 -4.6582 40.7666 -5.584 Q41.5488 -6.5098 42.7676 -6.5098 Q43.9219 -6.5098 44.5518 -5.6895 Q45.1816 -4.8691 45.1816 -3.3574 L45.1758 -3 L41.1621 -3 Q41.4141 -0.7324 43.3828 -0.7324 Q44.1035 -0.7324 45.1523 -1.1191 ZM41.2148 -3.8672 L44.0215 -3.8672 Q44.0215 -5.6426 42.6973 -5.6426 Q41.3672 -5.6426 41.2148 -3.8672 ZM47.4844 0 L47.4844 -1.1543 L48.6387 -1.1543 L48.6387 0 ZM47.4844 -2.3145 L47.4844 -2.6309 Q47.4844 -3.75 48.3457 -4.7344 L48.7148 -5.1621 Q49.6348 -6.2168 49.6348 -6.8906 Q49.6348 -7.4121 49.2305 -7.7168 Q48.8262 -8.0215 48.1406 -8.0215 Q47.2441 -8.0215 46.2363 -7.5879 L46.2363 -8.5664 Q47.3203 -8.8945 48.2637 -8.8945 Q49.459 -8.8945 50.1621 -8.3584 Q50.8652 -7.8223 50.8652 -6.9082 Q50.8652 -6.3926 50.6631 -6.0205 Q50.4609 -5.6484 49.8867 -5.1035 L49.5234 -4.7637 Q48.9785 -4.248 48.8086 -3.8994 Q48.6387 -3.5508 48.6387 -2.959 L48.6387 -2.3145 ZM54.5508 0.9375 L54.5508 1.7344 Q53.2852 0.873 52.5439 -0.6064 Q51.8027 -2.0859 51.8027 -3.7617 Q51.8027 -5.4316 52.5439 -6.9111 Q53.2852 -8.3906 54.5508 -9.252 L54.5508 -8.4551 Q53.6895 -7.5176 53.3232 -6.4395 Q52.957 -5.3613 52.957 -3.7617 Q52.957 -2.1562 53.3232 -1.0781 Q53.6895 0 54.5508 0.9375 ZM55.418 0.9375 L55.418 1.7344 Q56.6836 0.873 57.4248 -0.6064 Q58.166 -2.0859 58.166 -3.7617 Q58.166 -5.4316 57.4248 -6.9111 Q56.6836 -8.3906 55.418 -9.252 L55.418 -8.4551 Q56.2793 -7.5176 56.6455 -6.4395 Q57.0117 -5.3613 57.0117 -3.7617 Q57.0117 -2.1562 56.6455 -1.0781 Q56.2793 0 55.418 0.9375 ZM64.002 0 L64.002 -1.1543 L65.1562 -1.1543 L65.1562 0 ZM64.002 -5.2031 L64.002 -6.3633 L65.1562 -6.3633 L65.1562 -5.2031 ZM71.4316 0.0703 L71.4316 -9.252 L72.5859 -9.252 L72.5859 -5.168 Q73.2949 -6.5039 74.7129 -6.5039 Q75.8613 -6.5039 76.5205 -5.666 Q77.1797 -4.8281 77.1797 -3.375 Q77.1797 -1.793 76.4326 -0.8232 Q75.6855 0.1465 74.4668 0.1465 Q73.3359 0.1465 72.5859 -0.7207 L72.4453 0.0703 ZM72.5859 -1.5176 Q73.4766 -0.7207 74.2852 -0.7207 Q75.9492 -0.7207 75.9492 -3.2578 Q75.9492 -5.4961 74.4727 -5.4961 Q73.5059 -5.4961 72.5859 -4.4473 ZM81.4746 0.1465 Q80.1094 0.1465 79.2949 -0.7588 Q78.4805 -1.6641 78.4805 -3.1816 Q78.4805 -4.7168 79.2979 -5.6104 Q80.1152 -6.5039 81.5156 -6.5039 Q82.916 -6.5039 83.7334 -5.6104 Q84.5508 -4.7168 84.5508 -3.1934 Q84.5508 -1.6348 83.7305 -0.7441 Q82.9102 0.1465 81.4746 0.1465 ZM81.4922 -0.7207 Q83.3262 -0.7207 83.3262 -3.1934 Q83.3262 -5.6367 81.5156 -5.6367 Q79.7109 -5.6367 79.7109 -3.1816 Q79.7109 -0.7207 81.4922 -0.7207 ZM88.8457 0.1465 Q87.4805 0.1465 86.666 -0.7588 Q85.8516 -1.6641 85.8516 -3.1816 Q85.8516 -4.7168 86.6689 -5.6104 Q87.4863 -6.5039 88.8867 -6.5039 Q90.2871 -6.5039 91.1045 -5.6104 Q91.9219 -4.7168 91.9219 -3.1934 Q91.9219 -1.6348 91.1016 -0.7441 Q90.2812 0.1465 88.8457 0.1465 ZM88.8633 -0.7207 Q90.6973 -0.7207 90.6973 -3.1934 Q90.6973 -5.6367 88.8867 -5.6367 Q87.082 -5.6367 87.082 -3.1816 Q87.082 -0.7207 88.8633 -0.7207 ZM93.7266 0 L93.7266 -9.252 L94.8809 -9.252 L94.8809 0 Z" style="stroke:none; clip-path:url(#clipPath6);"/>
    </g>
    <g style="text-rendering:optimizeLegibility; stroke-width:2; font-family:sans-serif;" transform="matrix(1.3333, 0, 0, 1.3333, 326.276794, 327.162476)">
      <path d="M4.3359 0 L4.3359 -3.0352 L1.3008 -3.0352 L1.3008 -3.9023 L4.3359 -3.9023 L4.3359 -6.9375 L5.2031 -6.9375 L5.2031 -3.9023 L8.2383 -3.9023 L8.2383 -3.0352 L5.2031 -3.0352 L5.2031 0 ZM16.4004 0.1465 Q15.5215 0.1465 15.0293 -0.3574 Q14.5371 -0.8613 14.5371 -1.7578 L14.5371 -5.4961 L13.7402 -5.4961 L13.7402 -6.3633 L14.5371 -6.3633 L14.5371 -7.5176 L15.6914 -7.6289 L15.6914 -6.3633 L17.3555 -6.3633 L17.3555 -5.4961 L15.6914 -5.4961 L15.6914 -1.9688 Q15.6914 -0.7207 16.7695 -0.7207 Q16.998 -0.7207 17.3262 -0.7969 L17.3262 0 Q16.793 0.1465 16.4004 0.1465 ZM18.9785 0 L18.9785 -9.252 L20.1328 -9.252 L20.1328 -5.168 Q21.0469 -6.5039 22.3711 -6.5039 Q23.1973 -6.5039 23.6895 -5.9795 Q24.1816 -5.4551 24.1816 -4.5703 L24.1816 0 L23.0273 0 L23.0273 -4.1953 Q23.0273 -4.9043 22.8193 -5.2061 Q22.6113 -5.5078 22.1309 -5.5078 Q21.0703 -5.5078 20.1328 -4.1191 L20.1328 0 ZM26.4258 0 L26.4258 -6.3633 L27.5801 -6.3633 L27.5801 -5.168 Q28.2656 -6.5039 29.5723 -6.5039 Q29.748 -6.5039 29.9414 -6.4746 L29.9414 -5.3965 Q29.6426 -5.4961 29.4141 -5.4961 Q28.3184 -5.4961 27.5801 -4.1953 L27.5801 0 ZM33.8262 0.1465 Q32.4609 0.1465 31.6465 -0.7588 Q30.832 -1.6641 30.832 -3.1816 Q30.832 -4.7168 31.6494 -5.6104 Q32.4668 -6.5039 33.8672 -6.5039 Q35.2676 -6.5039 36.085 -5.6104 Q36.9023 -4.7168 36.9023 -3.1934 Q36.9023 -1.6348 36.082 -0.7441 Q35.2617 0.1465 33.8262 0.1465 ZM33.8438 -0.7207 Q35.6777 -0.7207 35.6777 -3.1934 Q35.6777 -5.6367 33.8672 -5.6367 Q32.0625 -5.6367 32.0625 -3.1816 Q32.0625 -0.7207 33.8438 -0.7207 ZM39.4453 0 L37.623 -6.3633 L38.7539 -6.3633 L40.1484 -1.4355 L41.6543 -6.3633 L42.8086 -6.3633 L44.127 -1.4355 L45.7266 -6.3633 L46.7168 -6.3633 L44.6426 0 L43.4824 0 L42.1348 -4.9277 L40.6113 0 ZM46.7988 2.0215 L46.7988 1.1543 L52.7988 1.1543 L52.7988 2.0215 ZM55.6406 0.1465 Q54.8496 0.1465 53.7188 -0.2227 L53.7188 -1.2832 Q54.8496 -0.7207 55.6875 -0.7207 Q56.1855 -0.7207 56.5137 -0.9902 Q56.8418 -1.2598 56.8418 -1.6641 Q56.8418 -2.2559 55.9219 -2.6426 L55.248 -2.9297 Q53.7539 -3.5508 53.7539 -4.7168 Q53.7539 -5.5488 54.3428 -6.0264 Q54.9316 -6.5039 55.957 -6.5039 Q56.4902 -6.5039 57.2754 -6.3574 L57.5156 -6.3105 L57.5156 -5.3496 Q56.5488 -5.6367 55.9805 -5.6367 Q54.8672 -5.6367 54.8672 -4.8281 Q54.8672 -4.3066 55.7109 -3.9492 L56.2676 -3.7148 Q57.2109 -3.3164 57.6035 -2.874 Q57.9961 -2.4316 57.9961 -1.7695 Q57.9961 -0.9316 57.334 -0.3926 Q56.6719 0.1465 55.6406 0.1465 ZM64.7344 -0.2051 Q63.5742 0.1465 62.748 0.1465 Q61.3418 0.1465 60.4541 -0.7881 Q59.5664 -1.7227 59.5664 -3.2109 Q59.5664 -4.6582 60.3486 -5.584 Q61.1309 -6.5098 62.3496 -6.5098 Q63.5039 -6.5098 64.1338 -5.6895 Q64.7637 -4.8691 64.7637 -3.3574 L64.7578 -3 L60.7441 -3 Q60.9961 -0.7324 62.9648 -0.7324 Q63.6855 -0.7324 64.7344 -1.1191 ZM60.7969 -3.8672 L63.6035 -3.8672 Q63.6035 -5.6426 62.2793 -5.6426 Q60.9492 -5.6426 60.7969 -3.8672 ZM69.2402 0.1465 Q67.9512 0.1465 67.1016 -0.8086 Q66.252 -1.7637 66.252 -3.2168 Q66.252 -4.7695 67.0928 -5.6367 Q67.9336 -6.5039 69.4395 -6.5039 Q70.1836 -6.5039 71.1035 -6.2988 L71.1035 -5.332 Q70.125 -5.6191 69.5098 -5.6191 Q68.625 -5.6191 68.0889 -4.9541 Q67.5527 -4.2891 67.5527 -3.1816 Q67.5527 -2.1094 68.1035 -1.4473 Q68.6543 -0.7852 69.5449 -0.7852 Q70.3359 -0.7852 71.1738 -1.1895 L71.1738 -0.1934 Q70.0547 0.1465 69.2402 0.1465 ZM75.3926 0.1465 Q74.0273 0.1465 73.2129 -0.7588 Q72.3984 -1.6641 72.3984 -3.1816 Q72.3984 -4.7168 73.2158 -5.6104 Q74.0332 -6.5039 75.4336 -6.5039 Q76.834 -6.5039 77.6514 -5.6104 Q78.4688 -4.7168 78.4688 -3.1934 Q78.4688 -1.6348 77.6484 -0.7441 Q76.8281 0.1465 75.3926 0.1465 ZM75.4102 -0.7207 Q77.2441 -0.7207 77.2441 -3.1934 Q77.2441 -5.6367 75.4336 -5.6367 Q73.6289 -5.6367 73.6289 -3.1816 Q73.6289 -0.7207 75.4102 -0.7207 ZM80.2734 0 L80.2734 -6.3633 L81.4277 -6.3633 L81.4277 -5.168 Q82.3418 -6.5039 83.666 -6.5039 Q84.4922 -6.5039 84.9844 -5.9795 Q85.4766 -5.4551 85.4766 -4.5703 L85.4766 0 L84.3223 0 L84.3223 -4.1953 Q84.3223 -4.9043 84.1143 -5.2061 Q83.9062 -5.5078 83.4258 -5.5078 Q82.3652 -5.5078 81.4277 -4.1191 L81.4277 0 ZM91.8047 0 L91.8047 -1.1953 Q91.1016 0.1465 89.6836 0.1465 Q88.5352 0.1465 87.876 -0.6914 Q87.2168 -1.5293 87.2168 -2.9824 Q87.2168 -4.5703 87.9639 -5.5371 Q88.7109 -6.5039 89.9297 -6.5039 Q91.0605 -6.5039 91.8047 -5.6367 L91.8047 -9.252 L92.9648 -9.252 L92.9648 0 ZM91.8047 -4.8457 Q90.9082 -5.6367 90.1055 -5.6367 Q88.4473 -5.6367 88.4473 -3.0996 Q88.4473 -0.8672 89.9238 -0.8672 Q90.8848 -0.8672 91.8047 -1.916 ZM97.5879 0.9375 L97.5879 1.7344 Q96.3223 0.873 95.5811 -0.6064 Q94.8398 -2.0859 94.8398 -3.7617 Q94.8398 -5.4316 95.5811 -6.9111 Q96.3223 -8.3906 97.5879 -9.252 L97.5879 -8.4551 Q96.7266 -7.5176 96.3604 -6.4395 Q95.9941 -5.3613 95.9941 -3.7617 Q95.9941 -2.1562 96.3604 -1.0781 Q96.7266 0 97.5879 0.9375 ZM98.4551 0.9375 L98.4551 1.7344 Q99.7207 0.873 100.4619 -0.6064 Q101.2031 -2.0859 101.2031 -3.7617 Q101.2031 -5.4316 100.4619 -6.9111 Q99.7207 -8.3906 98.4551 -9.252 L98.4551 -8.4551 Q99.3164 -7.5176 99.6826 -6.4395 Q100.0488 -5.3613 100.0488 -3.7617 Q100.0488 -2.1562 99.6826 -1.0781 Q99.3164 0 98.4551 0.9375 ZM107.0391 0 L107.0391 -1.1543 L108.1934 -1.1543 L108.1934 0 ZM107.0391 -5.2031 L107.0391 -6.3633 L108.1934 -6.3633 L108.1934 -5.2031 ZM115.7871 0 L113.4199 -6.3633 L114.5742 -6.3633 L116.4258 -1.4121 L118.377 -6.3633 L119.4551 -6.3633 L116.9414 0 ZM123.1699 0.1465 Q121.8047 0.1465 120.9902 -0.7588 Q120.1758 -1.6641 120.1758 -3.1816 Q120.1758 -4.7168 120.9932 -5.6104 Q121.8105 -6.5039 123.2109 -6.5039 Q124.6113 -6.5039 125.4287 -5.6104 Q126.2461 -4.7168 126.2461 -3.1934 Q126.2461 -1.6348 125.4258 -0.7441 Q124.6055 0.1465 123.1699 0.1465 ZM123.1875 -0.7207 Q125.0215 -0.7207 125.0215 -3.1934 Q125.0215 -5.6367 123.2109 -5.6367 Q121.4062 -5.6367 121.4062 -3.1816 Q121.4062 -0.7207 123.1875 -0.7207 ZM128.0508 0 L128.0508 -6.3633 L129.2051 -6.3633 L129.2051 0 ZM128.0508 -7.5176 L128.0508 -8.6719 L129.2051 -8.6719 L129.2051 -7.5176 ZM135.6035 0 L135.6035 -1.1953 Q134.9004 0.1465 133.4824 0.1465 Q132.334 0.1465 131.6748 -0.6914 Q131.0156 -1.5293 131.0156 -2.9824 Q131.0156 -4.5703 131.7627 -5.5371 Q132.5098 -6.5039 133.7285 -6.5039 Q134.8594 -6.5039 135.6035 -5.6367 L135.6035 -9.252 L136.7637 -9.252 L136.7637 0 ZM135.6035 -4.8457 Q134.707 -5.6367 133.9043 -5.6367 Q132.2461 -5.6367 132.2461 -3.0996 Q132.2461 -0.8672 133.7227 -0.8672 Q134.6836 -0.8672 135.6035 -1.916 Z" style="stroke:none; clip-path:url(#clipPath7);"/>
    </g>
    <g style="text-rendering:optimizeLegibility; stroke-width:2; font-family:sans-serif;" transform="matrix(1.3333, 0, 0, 1.3333, 326.276794, 308.319183)">
      <path d="M4.3359 0 L4.3359 -3.0352 L1.3008 -3.0352 L1.3008 -3.9023 L4.3359 -3.9023 L4.3359 -6.9375 L5.2031 -6.9375 L5.2031 -3.9023 L8.2383 -3.9023 L8.2383 -3.0352 L5.2031 -3.0352 L5.2031 0 ZM16.4004 0.1465 Q15.5215 0.1465 15.0293 -0.3574 Q14.5371 -0.8613 14.5371 -1.7578 L14.5371 -5.4961 L13.7402 -5.4961 L13.7402 -6.3633 L14.5371 -6.3633 L14.5371 -7.5176 L15.6914 -7.6289 L15.6914 -6.3633 L17.3555 -6.3633 L17.3555 -5.4961 L15.6914 -5.4961 L15.6914 -1.9688 Q15.6914 -0.7207 16.7695 -0.7207 Q16.998 -0.7207 17.3262 -0.7969 L17.3262 0 Q16.793 0.1465 16.4004 0.1465 ZM18.9785 0 L18.9785 -9.252 L20.1328 -9.252 L20.1328 -5.168 Q21.0469 -6.5039 22.3711 -6.5039 Q23.1973 -6.5039 23.6895 -5.9795 Q24.1816 -5.4551 24.1816 -4.5703 L24.1816 0 L23.0273 0 L23.0273 -4.1953 Q23.0273 -4.9043 22.8193 -5.2061 Q22.6113 -5.5078 22.1309 -5.5078 Q21.0703 -5.5078 20.1328 -4.1191 L20.1328 0 ZM26.4258 0 L26.4258 -6.3633 L27.5801 -6.3633 L27.5801 -5.168 Q28.2656 -6.5039 29.5723 -6.5039 Q29.748 -6.5039 29.9414 -6.4746 L29.9414 -5.3965 Q29.6426 -5.4961 29.4141 -5.4961 Q28.3184 -5.4961 27.5801 -4.1953 L27.5801 0 ZM33.8262 0.1465 Q32.4609 0.1465 31.6465 -0.7588 Q30.832 -1.6641 30.832 -3.1816 Q30.832 -4.7168 31.6494 -5.6104 Q32.4668 -6.5039 33.8672 -6.5039 Q35.2676 -6.5039 36.085 -5.6104 Q36.9023 -4.7168 36.9023 -3.1934 Q36.9023 -1.6348 36.082 -0.7441 Q35.2617 0.1465 33.8262 0.1465 ZM33.8438 -0.7207 Q35.6777 -0.7207 35.6777 -3.1934 Q35.6777 -5.6367 33.8672 -5.6367 Q32.0625 -5.6367 32.0625 -3.1816 Q32.0625 -0.7207 33.8438 -0.7207 ZM39.4453 0 L37.623 -6.3633 L38.7539 -6.3633 L40.1484 -1.4355 L41.6543 -6.3633 L42.8086 -6.3633 L44.127 -1.4355 L45.7266 -6.3633 L46.7168 -6.3633 L44.6426 0 L43.4824 0 L42.1348 -4.9277 L40.6113 0 ZM46.7988 2.0215 L46.7988 1.1543 L52.7988 1.1543 L52.7988 2.0215 ZM55.3301 -5.4961 L55.3301 0 L54.1699 0 L54.1699 -5.4961 L53.2676 -5.4961 L53.2676 -6.3633 L54.1699 -6.3633 L54.1699 -7.125 Q54.1699 -9.3984 56.2441 -9.3984 Q56.8242 -9.3984 57.5625 -9.2051 L57.5625 -8.291 Q56.7832 -8.5312 56.3145 -8.5312 Q55.7461 -8.5312 55.5381 -8.2588 Q55.3301 -7.9863 55.3301 -7.248 L55.3301 -6.3633 L56.918 -6.3633 L56.918 -5.4961 ZM58.3652 0 L58.3652 -6.3633 L59.5195 -6.3633 L59.5195 0 ZM58.3652 -7.5176 L58.3652 -8.6719 L59.5195 -8.6719 L59.5195 -7.5176 ZM61.834 0 L61.834 -6.3633 L62.9883 -6.3633 L62.9883 -5.168 Q63.6738 -6.5039 64.9805 -6.5039 Q65.1562 -6.5039 65.3496 -6.4746 L65.3496 -5.3965 Q65.0508 -5.4961 64.8223 -5.4961 Q63.7266 -5.4961 62.9883 -4.1953 L62.9883 0 ZM68.4316 0.1465 Q67.6406 0.1465 66.5098 -0.2227 L66.5098 -1.2832 Q67.6406 -0.7207 68.4785 -0.7207 Q68.9766 -0.7207 69.3047 -0.9902 Q69.6328 -1.2598 69.6328 -1.6641 Q69.6328 -2.2559 68.7129 -2.6426 L68.0391 -2.9297 Q66.5449 -3.5508 66.5449 -4.7168 Q66.5449 -5.5488 67.1338 -6.0264 Q67.7227 -6.5039 68.748 -6.5039 Q69.2812 -6.5039 70.0664 -6.3574 L70.3066 -6.3105 L70.3066 -5.3496 Q69.3398 -5.6367 68.7715 -5.6367 Q67.6582 -5.6367 67.6582 -4.8281 Q67.6582 -4.3066 68.502 -3.9492 L69.0586 -3.7148 Q70.002 -3.3164 70.3945 -2.874 Q70.7871 -2.4316 70.7871 -1.7695 Q70.7871 -0.9316 70.125 -0.3926 Q69.4629 0.1465 68.4316 0.1465 ZM74.7715 0.1465 Q73.8926 0.1465 73.4004 -0.3574 Q72.9082 -0.8613 72.9082 -1.7578 L72.9082 -5.4961 L72.1113 -5.4961 L72.1113 -6.3633 L72.9082 -6.3633 L72.9082 -7.5176 L74.0625 -7.6289 L74.0625 -6.3633 L75.7266 -6.3633 L75.7266 -5.4961 L74.0625 -5.4961 L74.0625 -1.9688 Q74.0625 -0.7207 75.1406 -0.7207 Q75.3691 -0.7207 75.6973 -0.7969 L75.6973 0 Q75.1641 0.1465 74.7715 0.1465 ZM79.6641 0.9375 L79.6641 1.7344 Q78.3984 0.873 77.6572 -0.6064 Q76.916 -2.0859 76.916 -3.7617 Q76.916 -5.4316 77.6572 -6.9111 Q78.3984 -8.3906 79.6641 -9.252 L79.6641 -8.4551 Q78.8027 -7.5176 78.4365 -6.4395 Q78.0703 -5.3613 78.0703 -3.7617 Q78.0703 -2.1562 78.4365 -1.0781 Q78.8027 0 79.6641 0.9375 ZM80.5312 0.9375 L80.5312 1.7344 Q81.7969 0.873 82.5381 -0.6064 Q83.2793 -2.0859 83.2793 -3.7617 Q83.2793 -5.4316 82.5381 -6.9111 Q81.7969 -8.3906 80.5312 -9.252 L80.5312 -8.4551 Q81.3926 -7.5176 81.7588 -6.4395 Q82.125 -5.3613 82.125 -3.7617 Q82.125 -2.1562 81.7588 -1.0781 Q81.3926 0 80.5312 0.9375 ZM89.1152 0 L89.1152 -1.1543 L90.2695 -1.1543 L90.2695 0 ZM89.1152 -5.2031 L89.1152 -6.3633 L90.2695 -6.3633 L90.2695 -5.2031 ZM97.8633 0 L95.4961 -6.3633 L96.6504 -6.3633 L98.502 -1.4121 L100.4531 -6.3633 L101.5312 -6.3633 L99.0176 0 ZM105.2461 0.1465 Q103.8809 0.1465 103.0664 -0.7588 Q102.252 -1.6641 102.252 -3.1816 Q102.252 -4.7168 103.0693 -5.6104 Q103.8867 -6.5039 105.2871 -6.5039 Q106.6875 -6.5039 107.5049 -5.6104 Q108.3223 -4.7168 108.3223 -3.1934 Q108.3223 -1.6348 107.502 -0.7441 Q106.6816 0.1465 105.2461 0.1465 ZM105.2637 -0.7207 Q107.0977 -0.7207 107.0977 -3.1934 Q107.0977 -5.6367 105.2871 -5.6367 Q103.4824 -5.6367 103.4824 -3.1816 Q103.4824 -0.7207 105.2637 -0.7207 ZM110.127 0 L110.127 -6.3633 L111.2812 -6.3633 L111.2812 0 ZM110.127 -7.5176 L110.127 -8.6719 L111.2812 -8.6719 L111.2812 -7.5176 ZM117.6797 0 L117.6797 -1.1953 Q116.9766 0.1465 115.5586 0.1465 Q114.4102 0.1465 113.751 -0.6914 Q113.0918 -1.5293 113.0918 -2.9824 Q113.0918 -4.5703 113.8389 -5.5371 Q114.5859 -6.5039 115.8047 -6.5039 Q116.9355 -6.5039 117.6797 -5.6367 L117.6797 -9.252 L118.8398 -9.252 L118.8398 0 ZM117.6797 -4.8457 Q116.7832 -5.6367 115.9805 -5.6367 Q114.3223 -5.6367 114.3223 -3.0996 Q114.3223 -0.8672 115.7988 -0.8672 Q116.7598 -0.8672 117.6797 -1.916 Z" style="stroke:none; clip-path:url(#clipPath8);"/>
    </g>
    <g style="text-rendering:optimizeLegibility; stroke-width:2; font-family:sans-serif;" transform="matrix(1.3333,0,0,1.3333,327.0909,-364.2424) translate(1,505.6641)"/>
    <g style="text-rendering:optimizeLegibility; stroke-width:2; font-family:sans-serif;" transform="matrix(1.3333,0,0,1.3333,327.0909,-364.2424) translate(1,483.5312)">
      <path d="M0.8672 -3.0352 L0.8672 -3.9023 L6.0703 -3.9023 L6.0703 -3.0352 ZM13.582 0.1465 Q12.791 0.1465 11.6602 -0.2227 L11.6602 -1.2832 Q12.791 -0.7207 13.6289 -0.7207 Q14.127 -0.7207 14.4551 -0.9902 Q14.7832 -1.2598 14.7832 -1.6641 Q14.7832 -2.2559 13.8633 -2.6426 L13.1895 -2.9297 Q11.6953 -3.5508 11.6953 -4.7168 Q11.6953 -5.5488 12.2842 -6.0264 Q12.873 -6.5039 13.8984 -6.5039 Q14.4316 -6.5039 15.2168 -6.3574 L15.457 -6.3105 L15.457 -5.3496 Q14.4902 -5.6367 13.9219 -5.6367 Q12.8086 -5.6367 12.8086 -4.8281 Q12.8086 -4.3066 13.6523 -3.9492 L14.209 -3.7148 Q15.1523 -3.3164 15.5449 -2.874 Q15.9375 -2.4316 15.9375 -1.7695 Q15.9375 -0.9316 15.2754 -0.3926 Q14.6133 0.1465 13.582 0.1465 ZM19.9219 0.1465 Q19.043 0.1465 18.5508 -0.3574 Q18.0586 -0.8613 18.0586 -1.7578 L18.0586 -5.4961 L17.2617 -5.4961 L17.2617 -6.3633 L18.0586 -6.3633 L18.0586 -7.5176 L19.2129 -7.6289 L19.2129 -6.3633 L20.877 -6.3633 L20.877 -5.4961 L19.2129 -5.4961 L19.2129 -1.9688 Q19.2129 -0.7207 20.291 -0.7207 Q20.5195 -0.7207 20.8477 -0.7969 L20.8477 0 Q20.3145 0.1465 19.9219 0.1465 ZM22.5 0 L22.5 -6.3633 L23.6543 -6.3633 L23.6543 -5.168 Q24.3398 -6.5039 25.6465 -6.5039 Q25.8223 -6.5039 26.0156 -6.4746 L26.0156 -5.3965 Q25.7168 -5.4961 25.4883 -5.4961 Q24.3926 -5.4961 23.6543 -4.1953 L23.6543 0 ZM27.4102 0 L27.4102 -6.3633 L28.5645 -6.3633 L28.5645 0 ZM27.4102 -7.5176 L27.4102 -8.6719 L28.5645 -8.6719 L28.5645 -7.5176 ZM30.8789 0 L30.8789 -9.252 L32.0332 -9.252 L32.0332 -3.2754 L34.7285 -6.3633 L35.9707 -6.3633 L33.3984 -3.3926 L36.5039 0 L35.0273 0 L32.0332 -3.2637 L32.0332 0 ZM42.5566 -0.2051 Q41.3965 0.1465 40.5703 0.1465 Q39.1641 0.1465 38.2764 -0.7881 Q37.3887 -1.7227 37.3887 -3.2109 Q37.3887 -4.6582 38.1709 -5.584 Q38.9531 -6.5098 40.1719 -6.5098 Q41.3262 -6.5098 41.9561 -5.6895 Q42.5859 -4.8691 42.5859 -3.3574 L42.5801 -3 L38.5664 -3 Q38.8184 -0.7324 40.7871 -0.7324 Q41.5078 -0.7324 42.5566 -1.1191 ZM38.6191 -3.8672 L41.4258 -3.8672 Q41.4258 -5.6426 40.1016 -5.6426 Q38.7715 -5.6426 38.6191 -3.8672 ZM43.4238 2.0215 L43.4238 1.1543 L49.4238 1.1543 L49.4238 2.0215 ZM50.5781 0.0703 L50.5781 -9.252 L51.7324 -9.252 L51.7324 -5.168 Q52.4414 -6.5039 53.8594 -6.5039 Q55.0078 -6.5039 55.667 -5.666 Q56.3262 -4.8281 56.3262 -3.375 Q56.3262 -1.793 55.5791 -0.8232 Q54.832 0.1465 53.6133 0.1465 Q52.4824 0.1465 51.7324 -0.7207 L51.5918 0.0703 ZM51.7324 -1.5176 Q52.623 -0.7207 53.4316 -0.7207 Q55.0957 -0.7207 55.0957 -3.2578 Q55.0957 -5.4961 53.6191 -5.4961 Q52.6523 -5.4961 51.7324 -4.4473 ZM60.6211 0.1465 Q59.2559 0.1465 58.4414 -0.7588 Q57.627 -1.6641 57.627 -3.1816 Q57.627 -4.7168 58.4443 -5.6104 Q59.2617 -6.5039 60.6621 -6.5039 Q62.0625 -6.5039 62.8799 -5.6104 Q63.6973 -4.7168 63.6973 -3.1934 Q63.6973 -1.6348 62.877 -0.7441 Q62.0566 0.1465 60.6211 0.1465 ZM60.6387 -0.7207 Q62.4727 -0.7207 62.4727 -3.1934 Q62.4727 -5.6367 60.6621 -5.6367 Q58.8574 -5.6367 58.8574 -3.1816 Q58.8574 -0.7207 60.6387 -0.7207 ZM65.502 0 L65.502 -6.3633 L66.6562 -6.3633 L66.6562 -5.168 Q67.5703 -6.5039 68.8945 -6.5039 Q69.7207 -6.5039 70.2129 -5.9795 Q70.7051 -5.4551 70.7051 -4.5703 L70.7051 0 L69.5508 0 L69.5508 -4.1953 Q69.5508 -4.9043 69.3428 -5.2061 Q69.1348 -5.5078 68.6543 -5.5078 Q67.5938 -5.5078 66.6562 -4.1191 L66.6562 0 ZM76.9277 0 L76.9277 -1.1953 Q76.0078 0.1465 74.6953 0.1465 Q73.8633 0.1465 73.3711 -0.3779 Q72.8789 -0.9023 72.8789 -1.793 L72.8789 -6.3633 L74.0332 -6.3633 L74.0332 -2.168 Q74.0332 -1.4531 74.2412 -1.1514 Q74.4492 -0.8496 74.9355 -0.8496 Q75.9902 -0.8496 76.9277 -2.2383 L76.9277 -6.3633 L78.082 -6.3633 L78.082 0 ZM82.084 0.1465 Q81.293 0.1465 80.1621 -0.2227 L80.1621 -1.2832 Q81.293 -0.7207 82.1309 -0.7207 Q82.6289 -0.7207 82.957 -0.9902 Q83.2852 -1.2598 83.2852 -1.6641 Q83.2852 -2.2559 82.3652 -2.6426 L81.6914 -2.9297 Q80.1973 -3.5508 80.1973 -4.7168 Q80.1973 -5.5488 80.7861 -6.0264 Q81.375 -6.5039 82.4004 -6.5039 Q82.9336 -6.5039 83.7188 -6.3574 L83.959 -6.3105 L83.959 -5.3496 Q82.9922 -5.6367 82.4238 -5.6367 Q81.3105 -5.6367 81.3105 -4.8281 Q81.3105 -4.3066 82.1543 -3.9492 L82.7109 -3.7148 Q83.6543 -3.3164 84.0469 -2.874 Q84.4395 -2.4316 84.4395 -1.7695 Q84.4395 -0.9316 83.7773 -0.3926 Q83.1152 0.1465 82.084 0.1465 ZM90.4746 0 L90.4746 -1.1543 L91.6289 -1.1543 L91.6289 0 ZM90.4746 -5.2031 L90.4746 -6.3633 L91.6289 -6.3633 L91.6289 -5.2031 ZM97.9043 0 L97.9043 -6.3633 L99.0586 -6.3633 L99.0586 0 ZM97.9043 -7.5176 L97.9043 -8.6719 L99.0586 -8.6719 L99.0586 -7.5176 ZM101.373 0 L101.373 -6.3633 L102.5273 -6.3633 L102.5273 -5.168 Q103.4414 -6.5039 104.7656 -6.5039 Q105.5918 -6.5039 106.084 -5.9795 Q106.5762 -5.4551 106.5762 -4.5703 L106.5762 0 L105.4219 0 L105.4219 -4.1953 Q105.4219 -4.9043 105.2139 -5.2061 Q105.0059 -5.5078 104.5254 -5.5078 Q103.4648 -5.5078 102.5273 -4.1191 L102.5273 0 ZM110.7305 0.1465 Q109.8516 0.1465 109.3594 -0.3574 Q108.8672 -0.8613 108.8672 -1.7578 L108.8672 -5.4961 L108.0703 -5.4961 L108.0703 -6.3633 L108.8672 -6.3633 L108.8672 -7.5176 L110.0215 -7.6289 L110.0215 -6.3633 L111.6855 -6.3633 L111.6855 -5.4961 L110.0215 -5.4961 L110.0215 -1.9688 Q110.0215 -0.7207 111.0996 -0.7207 Q111.3281 -0.7207 111.6562 -0.7969 L111.6562 0 Q111.123 0.1465 110.7305 0.1465 ZM117.252 -1.9512 L117.252 -2.8184 L124.1895 -2.8184 L124.1895 -1.9512 ZM117.252 -4.1191 L117.252 -4.9863 L124.1895 -4.9863 L124.1895 -4.1191 ZM133.0488 0.2168 Q131.707 0.2168 130.8779 -1.0459 Q130.0488 -2.3086 130.0488 -4.3418 Q130.0488 -6.3926 130.8838 -7.6406 Q131.7188 -8.8887 133.084 -8.8887 Q134.4492 -8.8887 135.2842 -7.6406 Q136.1191 -6.3926 136.1191 -4.3594 Q136.1191 -2.2734 135.2842 -1.0283 Q134.4492 0.2168 133.0488 0.2168 ZM133.0605 -0.6504 Q134.8945 -0.6504 134.8945 -4.377 Q134.8945 -8.0215 133.084 -8.0215 Q131.2793 -8.0215 131.2793 -4.3418 Q131.2793 -0.6504 133.0605 -0.6504 Z" style="stroke:none; clip-path:url(#clipPath10);"/>
    </g>
    <g style="text-rendering:optimizeLegibility; stroke-width:2; font-family:sans-serif;" transform="matrix(1.3333,0,0,1.3333,327.0909,-364.2424) translate(1,469.3984)">
      <path d="M0.8672 -3.0352 L0.8672 -3.9023 L6.0703 -3.9023 L6.0703 -3.0352 ZM13.582 0.1465 Q12.791 0.1465 11.6602 -0.2227 L11.6602 -1.2832 Q12.791 -0.7207 13.6289 -0.7207 Q14.127 -0.7207 14.4551 -0.9902 Q14.7832 -1.2598 14.7832 -1.6641 Q14.7832 -2.2559 13.8633 -2.6426 L13.1895 -2.9297 Q11.6953 -3.5508 11.6953 -4.7168 Q11.6953 -5.5488 12.2842 -6.0264 Q12.873 -6.5039 13.8984 -6.5039 Q14.4316 -6.5039 15.2168 -6.3574 L15.457 -6.3105 L15.457 -5.3496 Q14.4902 -5.6367 13.9219 -5.6367 Q12.8086 -5.6367 12.8086 -4.8281 Q12.8086 -4.3066 13.6523 -3.9492 L14.209 -3.7148 Q15.1523 -3.3164 15.5449 -2.874 Q15.9375 -2.4316 15.9375 -1.7695 Q15.9375 -0.9316 15.2754 -0.3926 Q14.6133 0.1465 13.582 0.1465 ZM18.0117 2.3145 L18.0117 -6.3633 L19.166 -6.3633 L19.166 -5.168 Q19.875 -6.5039 21.293 -6.5039 Q22.4414 -6.5039 23.1006 -5.666 Q23.7598 -4.8281 23.7598 -3.375 Q23.7598 -1.793 23.0127 -0.8232 Q22.2656 0.1465 21.0469 0.1465 Q19.916 0.1465 19.166 -0.7207 L19.166 2.3145 ZM19.166 -1.5176 Q20.0566 -0.7207 20.8652 -0.7207 Q22.5293 -0.7207 22.5293 -3.2578 Q22.5293 -5.4961 21.0527 -5.4961 Q20.0859 -5.4961 19.166 -4.4473 ZM28.8457 -0.8086 Q27.8086 0.1465 26.8477 0.1465 Q26.0566 0.1465 25.5352 -0.3486 Q25.0137 -0.8438 25.0137 -1.5996 Q25.0137 -2.6426 25.8896 -3.2021 Q26.7656 -3.7617 28.4004 -3.7617 L28.6758 -3.7617 L28.6758 -4.5293 Q28.6758 -5.6367 27.5391 -5.6367 Q26.625 -5.6367 25.5645 -5.0742 L25.5645 -6.0293 Q26.7305 -6.5039 27.75 -6.5039 Q28.8164 -6.5039 29.3232 -6.0234 Q29.8301 -5.543 29.8301 -4.5293 L29.8301 -1.6465 Q29.8301 -0.6562 30.4395 -0.6562 Q30.5156 -0.6562 30.6621 -0.6797 L30.7441 -0.041 Q30.3516 0.1465 29.877 0.1465 Q29.0684 0.1465 28.8457 -0.8086 ZM28.6758 -1.4355 L28.6758 -3.082 L28.2891 -3.0938 Q27.3398 -3.0938 26.7539 -2.7334 Q26.168 -2.373 26.168 -1.7871 Q26.168 -1.3711 26.4609 -1.084 Q26.7539 -0.7969 27.1758 -0.7969 Q27.8965 -0.7969 28.6758 -1.4355 ZM32.1914 0 L32.1914 -6.3633 L33.3457 -6.3633 L33.3457 -5.168 Q34.0312 -6.5039 35.3379 -6.5039 Q35.5137 -6.5039 35.707 -6.4746 L35.707 -5.3965 Q35.4082 -5.4961 35.1797 -5.4961 Q34.084 -5.4961 33.3457 -4.1953 L33.3457 0 ZM41.7656 -0.2051 Q40.6055 0.1465 39.7793 0.1465 Q38.373 0.1465 37.4854 -0.7881 Q36.5977 -1.7227 36.5977 -3.2109 Q36.5977 -4.6582 37.3799 -5.584 Q38.1621 -6.5098 39.3809 -6.5098 Q40.5352 -6.5098 41.165 -5.6895 Q41.7949 -4.8691 41.7949 -3.3574 L41.7891 -3 L37.7754 -3 Q38.0273 -0.7324 39.9961 -0.7324 Q40.7168 -0.7324 41.7656 -1.1191 ZM37.8281 -3.8672 L40.6348 -3.8672 Q40.6348 -5.6426 39.3105 -5.6426 Q37.9805 -5.6426 37.8281 -3.8672 ZM42.6328 2.0215 L42.6328 1.1543 L48.6328 1.1543 L48.6328 2.0215 ZM49.7871 0.0703 L49.7871 -9.252 L50.9414 -9.252 L50.9414 -5.168 Q51.6504 -6.5039 53.0684 -6.5039 Q54.2168 -6.5039 54.876 -5.666 Q55.5352 -4.8281 55.5352 -3.375 Q55.5352 -1.793 54.7881 -0.8232 Q54.041 0.1465 52.8223 0.1465 Q51.6914 0.1465 50.9414 -0.7207 L50.8008 0.0703 ZM50.9414 -1.5176 Q51.832 -0.7207 52.6406 -0.7207 Q54.3047 -0.7207 54.3047 -3.2578 Q54.3047 -5.4961 52.8281 -5.4961 Q51.8613 -5.4961 50.9414 -4.4473 ZM59.8301 0.1465 Q58.4648 0.1465 57.6504 -0.7588 Q56.8359 -1.6641 56.8359 -3.1816 Q56.8359 -4.7168 57.6533 -5.6104 Q58.4707 -6.5039 59.8711 -6.5039 Q61.2715 -6.5039 62.0889 -5.6104 Q62.9062 -4.7168 62.9062 -3.1934 Q62.9062 -1.6348 62.0859 -0.7441 Q61.2656 0.1465 59.8301 0.1465 ZM59.8477 -0.7207 Q61.6816 -0.7207 61.6816 -3.1934 Q61.6816 -5.6367 59.8711 -5.6367 Q58.0664 -5.6367 58.0664 -3.1816 Q58.0664 -0.7207 59.8477 -0.7207 ZM64.7109 0 L64.7109 -6.3633 L65.8652 -6.3633 L65.8652 -5.168 Q66.7793 -6.5039 68.1035 -6.5039 Q68.9297 -6.5039 69.4219 -5.9795 Q69.9141 -5.4551 69.9141 -4.5703 L69.9141 0 L68.7598 0 L68.7598 -4.1953 Q68.7598 -4.9043 68.5518 -5.2061 Q68.3438 -5.5078 67.8633 -5.5078 Q66.8027 -5.5078 65.8652 -4.1191 L65.8652 0 ZM76.1367 0 L76.1367 -1.1953 Q75.2168 0.1465 73.9043 0.1465 Q73.0723 0.1465 72.5801 -0.3779 Q72.0879 -0.9023 72.0879 -1.793 L72.0879 -6.3633 L73.2422 -6.3633 L73.2422 -2.168 Q73.2422 -1.4531 73.4502 -1.1514 Q73.6582 -0.8496 74.1445 -0.8496 Q75.1992 -0.8496 76.1367 -2.2383 L76.1367 -6.3633 L77.291 -6.3633 L77.291 0 ZM81.293 0.1465 Q80.502 0.1465 79.3711 -0.2227 L79.3711 -1.2832 Q80.502 -0.7207 81.3398 -0.7207 Q81.8379 -0.7207 82.166 -0.9902 Q82.4941 -1.2598 82.4941 -1.6641 Q82.4941 -2.2559 81.5742 -2.6426 L80.9004 -2.9297 Q79.4062 -3.5508 79.4062 -4.7168 Q79.4062 -5.5488 79.9951 -6.0264 Q80.584 -6.5039 81.6094 -6.5039 Q82.1426 -6.5039 82.9277 -6.3574 L83.168 -6.3105 L83.168 -5.3496 Q82.2012 -5.6367 81.6328 -5.6367 Q80.5195 -5.6367 80.5195 -4.8281 Q80.5195 -4.3066 81.3633 -3.9492 L81.9199 -3.7148 Q82.8633 -3.3164 83.2559 -2.874 Q83.6484 -2.4316 83.6484 -1.7695 Q83.6484 -0.9316 82.9863 -0.3926 Q82.3242 0.1465 81.293 0.1465 ZM89.6836 0 L89.6836 -1.1543 L90.8379 -1.1543 L90.8379 0 ZM89.6836 -5.2031 L89.6836 -6.3633 L90.8379 -6.3633 L90.8379 -5.2031 ZM97.1133 0 L97.1133 -6.3633 L98.2676 -6.3633 L98.2676 0 ZM97.1133 -7.5176 L97.1133 -8.6719 L98.2676 -8.6719 L98.2676 -7.5176 ZM100.582 0 L100.582 -6.3633 L101.7363 -6.3633 L101.7363 -5.168 Q102.6504 -6.5039 103.9746 -6.5039 Q104.8008 -6.5039 105.293 -5.9795 Q105.7852 -5.4551 105.7852 -4.5703 L105.7852 0 L104.6309 0 L104.6309 -4.1953 Q104.6309 -4.9043 104.4229 -5.2061 Q104.2148 -5.5078 103.7344 -5.5078 Q102.6738 -5.5078 101.7363 -4.1191 L101.7363 0 ZM109.9395 0.1465 Q109.0605 0.1465 108.5684 -0.3574 Q108.0762 -0.8613 108.0762 -1.7578 L108.0762 -5.4961 L107.2793 -5.4961 L107.2793 -6.3633 L108.0762 -6.3633 L108.0762 -7.5176 L109.2305 -7.6289 L109.2305 -6.3633 L110.8945 -6.3633 L110.8945 -5.4961 L109.2305 -5.4961 L109.2305 -1.9688 Q109.2305 -0.7207 110.3086 -0.7207 Q110.5371 -0.7207 110.8652 -0.7969 L110.8652 0 Q110.332 0.1465 109.9395 0.1465 ZM116.4609 -1.9512 L116.4609 -2.8184 L123.3984 -2.8184 L123.3984 -1.9512 ZM116.4609 -4.1191 L116.4609 -4.9863 L123.3984 -4.9863 L123.3984 -4.1191 ZM132.2578 0.2168 Q130.916 0.2168 130.0869 -1.0459 Q129.2578 -2.3086 129.2578 -4.3418 Q129.2578 -6.3926 130.0928 -7.6406 Q130.9277 -8.8887 132.293 -8.8887 Q133.6582 -8.8887 134.4932 -7.6406 Q135.3281 -6.3926 135.3281 -4.3594 Q135.3281 -2.2734 134.4932 -1.0283 Q133.6582 0.2168 132.2578 0.2168 ZM132.2695 -0.6504 Q134.1035 -0.6504 134.1035 -4.377 Q134.1035 -8.0215 132.293 -8.0215 Q130.4883 -8.0215 130.4883 -4.3418 Q130.4883 -0.6504 132.2695 -0.6504 Z" style="stroke:none; clip-path:url(#clipPath11);"/>
    </g>
    <g style="text-rendering:optimizeLegibility; stroke-width:2; font-family:sans-serif;" transform="matrix(1.3333,0,0,1.3333,327.0909,-364.2424) translate(1,455.2656)">
      <path d="M0.8672 -3.0352 L0.8672 -3.9023 L6.0703 -3.9023 L6.0703 -3.0352 ZM13.582 0.1465 Q12.791 0.1465 11.6602 -0.2227 L11.6602 -1.2832 Q12.791 -0.7207 13.6289 -0.7207 Q14.127 -0.7207 14.4551 -0.9902 Q14.7832 -1.2598 14.7832 -1.6641 Q14.7832 -2.2559 13.8633 -2.6426 L13.1895 -2.9297 Q11.6953 -3.5508 11.6953 -4.7168 Q11.6953 -5.5488 12.2842 -6.0264 Q12.873 -6.5039 13.8984 -6.5039 Q14.4316 -6.5039 15.2168 -6.3574 L15.457 -6.3105 L15.457 -5.3496 Q14.4902 -5.6367 13.9219 -5.6367 Q12.8086 -5.6367 12.8086 -4.8281 Q12.8086 -4.3066 13.6523 -3.9492 L14.209 -3.7148 Q15.1523 -3.3164 15.5449 -2.874 Q15.9375 -2.4316 15.9375 -1.7695 Q15.9375 -0.9316 15.2754 -0.3926 Q14.6133 0.1465 13.582 0.1465 ZM22.6758 -0.2051 Q21.5156 0.1465 20.6895 0.1465 Q19.2832 0.1465 18.3955 -0.7881 Q17.5078 -1.7227 17.5078 -3.2109 Q17.5078 -4.6582 18.29 -5.584 Q19.0723 -6.5098 20.291 -6.5098 Q21.4453 -6.5098 22.0752 -5.6895 Q22.7051 -4.8691 22.7051 -3.3574 L22.6992 -3 L18.6855 -3 Q18.9375 -0.7324 20.9062 -0.7324 Q21.627 -0.7324 22.6758 -1.1191 ZM18.7383 -3.8672 L21.5449 -3.8672 Q21.5449 -5.6426 20.2207 -5.6426 Q18.8906 -5.6426 18.7383 -3.8672 ZM27.1816 0.1465 Q25.8926 0.1465 25.043 -0.8086 Q24.1934 -1.7637 24.1934 -3.2168 Q24.1934 -4.7695 25.0342 -5.6367 Q25.875 -6.5039 27.3809 -6.5039 Q28.125 -6.5039 29.0449 -6.2988 L29.0449 -5.332 Q28.0664 -5.6191 27.4512 -5.6191 Q26.5664 -5.6191 26.0303 -4.9541 Q25.4941 -4.2891 25.4941 -3.1816 Q25.4941 -2.1094 26.0449 -1.4473 Q26.5957 -0.7852 27.4863 -0.7852 Q28.2773 -0.7852 29.1152 -1.1895 L29.1152 -0.1934 Q27.9961 0.1465 27.1816 0.1465 ZM33.334 0.1465 Q31.9688 0.1465 31.1543 -0.7588 Q30.3398 -1.6641 30.3398 -3.1816 Q30.3398 -4.7168 31.1572 -5.6104 Q31.9746 -6.5039 33.375 -6.5039 Q34.7754 -6.5039 35.5928 -5.6104 Q36.4102 -4.7168 36.4102 -3.1934 Q36.4102 -1.6348 35.5898 -0.7441 Q34.7695 0.1465 33.334 0.1465 ZM33.3516 -0.7207 Q35.1855 -0.7207 35.1855 -3.1934 Q35.1855 -5.6367 33.375 -5.6367 Q31.5703 -5.6367 31.5703 -3.1816 Q31.5703 -0.7207 33.3516 -0.7207 ZM38.2148 0 L38.2148 -6.3633 L39.3691 -6.3633 L39.3691 -5.168 Q40.2832 -6.5039 41.6074 -6.5039 Q42.4336 -6.5039 42.9258 -5.9795 Q43.418 -5.4551 43.418 -4.5703 L43.418 0 L42.2637 0 L42.2637 -4.1953 Q42.2637 -4.9043 42.0557 -5.2061 Q41.8477 -5.5078 41.3672 -5.5078 Q40.3066 -5.5078 39.3691 -4.1191 L39.3691 0 ZM49.7461 0 L49.7461 -1.1953 Q49.043 0.1465 47.625 0.1465 Q46.4766 0.1465 45.8174 -0.6914 Q45.1582 -1.5293 45.1582 -2.9824 Q45.1582 -4.5703 45.9053 -5.5371 Q46.6523 -6.5039 47.8711 -6.5039 Q49.002 -6.5039 49.7461 -5.6367 L49.7461 -9.252 L50.9062 -9.252 L50.9062 0 ZM49.7461 -4.8457 Q48.8496 -5.6367 48.0469 -5.6367 Q46.3887 -5.6367 46.3887 -3.0996 Q46.3887 -0.8672 47.8652 -0.8672 Q48.8262 -0.8672 49.7461 -1.916 ZM57.1758 0 L57.1758 -1.1543 L58.3301 -1.1543 L58.3301 0 ZM57.1758 -5.2031 L57.1758 -6.3633 L58.3301 -6.3633 L58.3301 -5.2031 ZM64.6055 0 L64.6055 -6.3633 L65.7598 -6.3633 L65.7598 0 ZM64.6055 -7.5176 L64.6055 -8.6719 L65.7598 -8.6719 L65.7598 -7.5176 ZM68.0742 0 L68.0742 -6.3633 L69.2285 -6.3633 L69.2285 -5.168 Q70.1426 -6.5039 71.4668 -6.5039 Q72.293 -6.5039 72.7852 -5.9795 Q73.2773 -5.4551 73.2773 -4.5703 L73.2773 0 L72.123 0 L72.123 -4.1953 Q72.123 -4.9043 71.915 -5.2061 Q71.707 -5.5078 71.2266 -5.5078 Q70.166 -5.5078 69.2285 -4.1191 L69.2285 0 ZM77.4316 0.1465 Q76.5527 0.1465 76.0605 -0.3574 Q75.5684 -0.8613 75.5684 -1.7578 L75.5684 -5.4961 L74.7715 -5.4961 L74.7715 -6.3633 L75.5684 -6.3633 L75.5684 -7.5176 L76.7227 -7.6289 L76.7227 -6.3633 L78.3867 -6.3633 L78.3867 -5.4961 L76.7227 -5.4961 L76.7227 -1.9688 Q76.7227 -0.7207 77.8008 -0.7207 Q78.0293 -0.7207 78.3574 -0.7969 L78.3574 0 Q77.8242 0.1465 77.4316 0.1465 ZM83.9531 -1.9512 L83.9531 -2.8184 L90.8906 -2.8184 L90.8906 -1.9512 ZM83.9531 -4.1191 L83.9531 -4.9863 L90.8906 -4.9863 L90.8906 -4.1191 ZM99.75 0.2168 Q98.4082 0.2168 97.5791 -1.0459 Q96.75 -2.3086 96.75 -4.3418 Q96.75 -6.3926 97.585 -7.6406 Q98.4199 -8.8887 99.7852 -8.8887 Q101.1504 -8.8887 101.9854 -7.6406 Q102.8203 -6.3926 102.8203 -4.3594 Q102.8203 -2.2734 101.9854 -1.0283 Q101.1504 0.2168 99.75 0.2168 ZM99.7617 -0.6504 Q101.5957 -0.6504 101.5957 -4.377 Q101.5957 -8.0215 99.7852 -8.0215 Q97.9805 -8.0215 97.9805 -4.3418 Q97.9805 -0.6504 99.7617 -0.6504 Z" style="stroke:none; clip-path:url(#clipPath12);"/>
    </g>
    <g style="text-rendering:optimizeLegibility; stroke-width:2; font-family:sans-serif;" transform="matrix(1.3333,0,0,1.3333,327.0909,-364.2424) translate(1,441.1328)">
      <path d="M0.8672 -3.0352 L0.8672 -3.9023 L6.0703 -3.9023 L6.0703 -3.0352 ZM13.2715 -5.4961 L13.2715 0 L12.1113 0 L12.1113 -5.4961 L11.209 -5.4961 L11.209 -6.3633 L12.1113 -6.3633 L12.1113 -7.125 Q12.1113 -9.3984 14.1855 -9.3984 Q14.7656 -9.3984 15.5039 -9.2051 L15.5039 -8.291 Q14.7246 -8.5312 14.2559 -8.5312 Q13.6875 -8.5312 13.4795 -8.2588 Q13.2715 -7.9863 13.2715 -7.248 L13.2715 -6.3633 L14.8594 -6.3633 L14.8594 -5.4961 ZM16.3066 0 L16.3066 -6.3633 L17.4609 -6.3633 L17.4609 0 ZM16.3066 -7.5176 L16.3066 -8.6719 L17.4609 -8.6719 L17.4609 -7.5176 ZM19.7754 0 L19.7754 -6.3633 L20.9297 -6.3633 L20.9297 -5.168 Q21.6152 -6.5039 22.9219 -6.5039 Q23.0977 -6.5039 23.291 -6.4746 L23.291 -5.3965 Q22.9922 -5.4961 22.7637 -5.4961 Q21.668 -5.4961 20.9297 -4.1953 L20.9297 0 ZM26.373 0.1465 Q25.582 0.1465 24.4512 -0.2227 L24.4512 -1.2832 Q25.582 -0.7207 26.4199 -0.7207 Q26.918 -0.7207 27.2461 -0.9902 Q27.5742 -1.2598 27.5742 -1.6641 Q27.5742 -2.2559 26.6543 -2.6426 L25.9805 -2.9297 Q24.4863 -3.5508 24.4863 -4.7168 Q24.4863 -5.5488 25.0752 -6.0264 Q25.6641 -6.5039 26.6895 -6.5039 Q27.2227 -6.5039 28.0078 -6.3574 L28.248 -6.3105 L28.248 -5.3496 Q27.2812 -5.6367 26.7129 -5.6367 Q25.5996 -5.6367 25.5996 -4.8281 Q25.5996 -4.3066 26.4434 -3.9492 L27 -3.7148 Q27.9434 -3.3164 28.3359 -2.874 Q28.7285 -2.4316 28.7285 -1.7695 Q28.7285 -0.9316 28.0664 -0.3926 Q27.4043 0.1465 26.373 0.1465 ZM32.7129 0.1465 Q31.834 0.1465 31.3418 -0.3574 Q30.8496 -0.8613 30.8496 -1.7578 L30.8496 -5.4961 L30.0527 -5.4961 L30.0527 -6.3633 L30.8496 -6.3633 L30.8496 -7.5176 L32.0039 -7.6289 L32.0039 -6.3633 L33.668 -6.3633 L33.668 -5.4961 L32.0039 -5.4961 L32.0039 -1.9688 Q32.0039 -0.7207 33.082 -0.7207 Q33.3105 -0.7207 33.6387 -0.7969 L33.6387 0 Q33.1055 0.1465 32.7129 0.1465 ZM39.252 0 L39.252 -1.1543 L40.4062 -1.1543 L40.4062 0 ZM39.252 -5.2031 L39.252 -6.3633 L40.4062 -6.3633 L40.4062 -5.2031 ZM46.6816 0 L46.6816 -6.3633 L47.8359 -6.3633 L47.8359 0 ZM46.6816 -7.5176 L46.6816 -8.6719 L47.8359 -8.6719 L47.8359 -7.5176 ZM50.1504 0 L50.1504 -6.3633 L51.3047 -6.3633 L51.3047 -5.168 Q52.2188 -6.5039 53.543 -6.5039 Q54.3691 -6.5039 54.8613 -5.9795 Q55.3535 -5.4551 55.3535 -4.5703 L55.3535 0 L54.1992 0 L54.1992 -4.1953 Q54.1992 -4.9043 53.9912 -5.2061 Q53.7832 -5.5078 53.3027 -5.5078 Q52.2422 -5.5078 51.3047 -4.1191 L51.3047 0 ZM59.5078 0.1465 Q58.6289 0.1465 58.1367 -0.3574 Q57.6445 -0.8613 57.6445 -1.7578 L57.6445 -5.4961 L56.8477 -5.4961 L56.8477 -6.3633 L57.6445 -6.3633 L57.6445 -7.5176 L58.7988 -7.6289 L58.7988 -6.3633 L60.4629 -6.3633 L60.4629 -5.4961 L58.7988 -5.4961 L58.7988 -1.9688 Q58.7988 -0.7207 59.877 -0.7207 Q60.1055 -0.7207 60.4336 -0.7969 L60.4336 0 Q59.9004 0.1465 59.5078 0.1465 ZM66.0293 -1.9512 L66.0293 -2.8184 L72.9668 -2.8184 L72.9668 -1.9512 ZM66.0293 -4.1191 L66.0293 -4.9863 L72.9668 -4.9863 L72.9668 -4.1191 ZM81.8262 0.2168 Q80.4844 0.2168 79.6553 -1.0459 Q78.8262 -2.3086 78.8262 -4.3418 Q78.8262 -6.3926 79.6611 -7.6406 Q80.4961 -8.8887 81.8613 -8.8887 Q83.2266 -8.8887 84.0615 -7.6406 Q84.8965 -6.3926 84.8965 -4.3594 Q84.8965 -2.2734 84.0615 -1.0283 Q83.2266 0.2168 81.8262 0.2168 ZM81.8379 -0.6504 Q83.6719 -0.6504 83.6719 -4.377 Q83.6719 -8.0215 81.8613 -8.0215 Q80.0566 -8.0215 80.0566 -4.3418 Q80.0566 -0.6504 81.8379 -0.6504 Z" style="stroke:none; clip-path:url(#clipPath13);"/>
    </g>
    <g style="font-family:sans-serif; text-rendering:optimizeLegibility;" transform="matrix(1.3333,0,0,1.3333,327.0909,-364.2424)">
      <line x1="-9" x2="150.2971" y1="489.6641" style="fill:none; clip-path:url(#clipPath2);" y2="489.6641"/>
      <line x1="-9" x2="150.2971" y1="425.1328" style="fill:none; clip-path:url(#clipPath2);" y2="425.1328"/>
    </g>
    <g style="text-rendering:optimizeLegibility; font-weight:bold; font-family:sans-serif;" transform="matrix(1.3333,0,0,1.3333,327.0909,-364.2424) translate(51.4241,419)">
      <path d="M1.084 0 L1.084 -8.6719 L6.5391 -8.6719 L6.5391 -7.4824 L2.8887 -7.4824 L2.8887 -4.8457 L5.8887 -4.8457 L5.8887 -3.6504 L2.8887 -3.6504 L2.8887 0 ZM7.9746 0 L7.9746 -6.4336 L9.709 -6.4336 L9.709 -5.2207 Q10.3828 -6.5801 11.7598 -6.5801 Q11.9238 -6.5801 12.082 -6.5449 L12.082 -4.998 Q11.7129 -5.1328 11.3965 -5.1328 Q10.3594 -5.1328 9.709 -4.084 L9.709 0 ZM16.582 -0.6914 Q15.7148 0.1465 14.7246 0.1465 Q13.8809 0.1465 13.3535 -0.3691 Q12.8262 -0.8848 12.8262 -1.7051 Q12.8262 -2.7715 13.6787 -3.3486 Q14.5312 -3.9258 16.1191 -3.9258 L16.582 -3.9258 L16.582 -4.5117 Q16.582 -5.5137 15.4395 -5.5137 Q14.4258 -5.5137 13.3887 -4.9395 L13.3887 -6.1348 Q14.5664 -6.5801 15.7207 -6.5801 Q18.2461 -6.5801 18.2461 -4.5703 L18.2461 -1.7227 Q18.2461 -0.9668 18.7324 -0.9668 Q18.8203 -0.9668 18.9609 -0.9902 L19.002 -0.0176 Q18.4512 0.1465 18.0293 0.1465 Q16.9629 0.1465 16.6582 -0.6914 ZM16.582 -1.623 L16.582 -2.9297 L16.1719 -2.9297 Q14.4902 -2.9297 14.4902 -1.875 Q14.4902 -1.5176 14.7334 -1.2744 Q14.9766 -1.0312 15.334 -1.0312 Q15.9434 -1.0312 16.582 -1.623 ZM20.4844 0 L20.4844 -6.4336 L22.1484 -6.4336 L22.1484 -5.2207 Q22.9102 -6.5801 24.3164 -6.5801 Q25.043 -6.5801 25.5117 -6.2227 Q25.9805 -5.8652 26.0859 -5.2207 Q26.9883 -6.5801 28.2656 -6.5801 Q30.0293 -6.5801 30.0293 -4.6348 L30.0293 0 L28.3652 0 L28.3652 -4.0664 Q28.3652 -5.209 27.6035 -5.209 Q26.8242 -5.209 26.0859 -4.084 L26.0859 0 L24.4219 0 L24.4219 -4.0664 Q24.4219 -5.2148 23.6543 -5.2148 Q22.8867 -5.2148 22.1484 -4.084 L22.1484 0 ZM37.3594 -0.2168 Q36.123 0.1465 35.0156 0.1465 Q33.4043 0.1465 32.4727 -0.7676 Q31.541 -1.6816 31.541 -3.2637 Q31.541 -4.7578 32.3936 -5.6689 Q33.2461 -6.5801 34.6465 -6.5801 Q36.0586 -6.5801 36.709 -5.6895 Q37.3594 -4.7988 37.3594 -2.8711 L33.3691 -2.8711 Q33.5449 -1.0312 35.3906 -1.0312 Q36.2637 -1.0312 37.3594 -1.4355 ZM33.3457 -3.8496 L35.6543 -3.8496 Q35.6543 -5.4961 34.5938 -5.4961 Q33.5156 -5.4961 33.3457 -3.8496 Z" style="stroke:none; clip-path:url(#clipPath14);"/>
    </g>
    <g style="text-rendering:optimizeLegibility; font-weight:bold; font-family:sans-serif;" transform="matrix(1.3333,0,0,1.3333,327.0909,-364.2424)">
      <line x1="11.074" x2="11.1155" y1="352.5803" style="fill:none; clip-path:url(#clipPath2);" y2="403"/>
      <line x1="11.1155" x2="5.1069" y1="403" style="fill:none; clip-path:url(#clipPath2);" y2="392.6126"/>
      <line x1="11.1155" x2="17.1069" y1="403" style="fill:none; clip-path:url(#clipPath2);" y2="392.6028"/>
    </g>
    <g style="font-family:sans-serif; text-rendering:optimizeLegibility;" transform="matrix(1.3333,0,0,1.3333,327.0909,-364.2424) translate(14.5478,390.9188)">
      <path d="M0.8672 -3.0352 L0.8672 -3.9023 L6.0703 -3.9023 L6.0703 -3.0352 ZM11.8945 0 L11.8945 -9.252 L13.0488 -9.252 L13.0488 -5.168 Q13.9629 -6.5039 15.2871 -6.5039 Q16.1133 -6.5039 16.6055 -5.9795 Q17.0977 -5.4551 17.0977 -4.5703 L17.0977 0 L15.9434 0 L15.9434 -4.1953 Q15.9434 -4.9043 15.7354 -5.2061 Q15.5273 -5.5078 15.0469 -5.5078 Q13.9863 -5.5078 13.0488 -4.1191 L13.0488 0 ZM24.0059 -0.2051 Q22.8457 0.1465 22.0195 0.1465 Q20.6133 0.1465 19.7256 -0.7881 Q18.8379 -1.7227 18.8379 -3.2109 Q18.8379 -4.6582 19.6201 -5.584 Q20.4023 -6.5098 21.6211 -6.5098 Q22.7754 -6.5098 23.4053 -5.6895 Q24.0352 -4.8691 24.0352 -3.3574 L24.0293 -3 L20.0156 -3 Q20.2676 -0.7324 22.2363 -0.7324 Q22.957 -0.7324 24.0059 -1.1191 ZM20.0684 -3.8672 L22.875 -3.8672 Q22.875 -5.6426 21.5508 -5.6426 Q20.2207 -5.6426 20.0684 -3.8672 ZM29.3086 -0.8086 Q28.2715 0.1465 27.3105 0.1465 Q26.5195 0.1465 25.998 -0.3486 Q25.4766 -0.8438 25.4766 -1.5996 Q25.4766 -2.6426 26.3525 -3.2021 Q27.2285 -3.7617 28.8633 -3.7617 L29.1387 -3.7617 L29.1387 -4.5293 Q29.1387 -5.6367 28.002 -5.6367 Q27.0879 -5.6367 26.0273 -5.0742 L26.0273 -6.0293 Q27.1934 -6.5039 28.2129 -6.5039 Q29.2793 -6.5039 29.7861 -6.0234 Q30.293 -5.543 30.293 -4.5293 L30.293 -1.6465 Q30.293 -0.6562 30.9023 -0.6562 Q30.9785 -0.6562 31.125 -0.6797 L31.207 -0.041 Q30.8145 0.1465 30.3398 0.1465 Q29.5312 0.1465 29.3086 -0.8086 ZM29.1387 -1.4355 L29.1387 -3.082 L28.752 -3.0938 Q27.8027 -3.0938 27.2168 -2.7334 Q26.6309 -2.373 26.6309 -1.7871 Q26.6309 -1.3711 26.9238 -1.084 Q27.2168 -0.7969 27.6387 -0.7969 Q28.3594 -0.7969 29.1387 -1.4355 ZM36.7383 0 L36.7383 -1.1953 Q36.0352 0.1465 34.6172 0.1465 Q33.4688 0.1465 32.8096 -0.6914 Q32.1504 -1.5293 32.1504 -2.9824 Q32.1504 -4.5703 32.8975 -5.5371 Q33.6445 -6.5039 34.8633 -6.5039 Q35.9941 -6.5039 36.7383 -5.6367 L36.7383 -9.252 L37.8984 -9.252 L37.8984 0 ZM36.7383 -4.8457 Q35.8418 -5.6367 35.0391 -5.6367 Q33.3809 -5.6367 33.3809 -3.0996 Q33.3809 -0.8672 34.8574 -0.8672 Q35.8184 -0.8672 36.7383 -1.916 Z" style="stroke:none; clip-path:url(#clipPath15);"/>
    </g>
    <g style="font-family:sans-serif; text-rendering:optimizeLegibility;" transform="matrix(1.3333,0,0,1.3333,327.0909,-364.2424) translate(-18.8993,389.9484)">
      <path d="M3.7617 0.2168 Q2.4199 0.2168 1.5908 -1.0459 Q0.7617 -2.3086 0.7617 -4.3418 Q0.7617 -6.3926 1.5967 -7.6406 Q2.4316 -8.8887 3.7969 -8.8887 Q5.1621 -8.8887 5.9971 -7.6406 Q6.832 -6.3926 6.832 -4.3594 Q6.832 -2.2734 5.9971 -1.0283 Q5.1621 0.2168 3.7617 0.2168 ZM3.7734 -0.6504 Q5.6074 -0.6504 5.6074 -4.377 Q5.6074 -8.0215 3.7969 -8.0215 Q1.9922 -8.0215 1.9922 -4.3418 Q1.9922 -0.6504 3.7734 -0.6504 ZM8.7598 0 L8.7598 -1.4473 L10.207 -1.4473 L10.207 0 ZM12.5566 0 L12.5566 -1.4473 L14.0039 -1.4473 L14.0039 0 ZM16.9863 0 L16.9863 -0.8672 L18.7207 -0.8672 L18.7207 -7.7109 L16.9863 -7.2773 L16.9863 -8.168 L19.8809 -8.8887 L19.8809 -0.8672 L21.6152 -0.8672 L21.6152 0 Z" style="stroke:none; clip-path:url(#clipPath16);"/>
    </g>
    <g style="font-family:sans-serif; text-rendering:optimizeLegibility;" transform="matrix(1.3333,0,0,1.3333,327.0909,-364.2424)">
      <line x1="126.0955" x2="126.3609" y1="352.5803" style="fill:none; clip-path:url(#clipPath2);" y2="403"/>
      <line x1="126.3609" x2="120.3063" y1="403" style="fill:none; clip-path:url(#clipPath2);" y2="392.6394"/>
      <line x1="126.3609" x2="132.3061" y1="403" style="fill:none; clip-path:url(#clipPath2);" y2="392.5763"/>
    </g>
    <g style="font-family:sans-serif; text-rendering:optimizeLegibility;" transform="matrix(1.3333,0,0,1.3333,327.0909,-364.2424) translate(137.567,388.112)">
      <path d="M0.8672 -3.0352 L0.8672 -3.9023 L6.0703 -3.9023 L6.0703 -3.0352 ZM14.3789 0.1465 Q13.0898 0.1465 12.2402 -0.8086 Q11.3906 -1.7637 11.3906 -3.2168 Q11.3906 -4.7695 12.2314 -5.6367 Q13.0723 -6.5039 14.5781 -6.5039 Q15.3223 -6.5039 16.2422 -6.2988 L16.2422 -5.332 Q15.2637 -5.6191 14.6484 -5.6191 Q13.7637 -5.6191 13.2275 -4.9541 Q12.6914 -4.2891 12.6914 -3.1816 Q12.6914 -2.1094 13.2422 -1.4473 Q13.793 -0.7852 14.6836 -0.7852 Q15.4746 -0.7852 16.3125 -1.1895 L16.3125 -0.1934 Q15.1934 0.1465 14.3789 0.1465 ZM22.0195 0 L22.0195 -1.1953 Q21.0996 0.1465 19.7871 0.1465 Q18.9551 0.1465 18.4629 -0.3779 Q17.9707 -0.9023 17.9707 -1.793 L17.9707 -6.3633 L19.125 -6.3633 L19.125 -2.168 Q19.125 -1.4531 19.333 -1.1514 Q19.541 -0.8496 20.0273 -0.8496 Q21.082 -0.8496 22.0195 -2.2383 L22.0195 -6.3633 L23.1738 -6.3633 L23.1738 0 ZM25.4883 0 L25.4883 -6.3633 L26.6426 -6.3633 L26.6426 -5.168 Q27.3281 -6.5039 28.6348 -6.5039 Q28.8105 -6.5039 29.0039 -6.4746 L29.0039 -5.3965 Q28.7051 -5.4961 28.4766 -5.4961 Q27.3809 -5.4961 26.6426 -4.1953 L26.6426 0 ZM30.3984 0 L30.3984 -6.3633 L31.5527 -6.3633 L31.5527 -5.168 Q32.2383 -6.5039 33.5449 -6.5039 Q33.7207 -6.5039 33.9141 -6.4746 L33.9141 -5.3965 Q33.6152 -5.4961 33.3867 -5.4961 Q32.291 -5.4961 31.5527 -4.1953 L31.5527 0 ZM39.9727 -0.2051 Q38.8125 0.1465 37.9863 0.1465 Q36.5801 0.1465 35.6924 -0.7881 Q34.8047 -1.7227 34.8047 -3.2109 Q34.8047 -4.6582 35.5869 -5.584 Q36.3691 -6.5098 37.5879 -6.5098 Q38.7422 -6.5098 39.3721 -5.6895 Q40.002 -4.8691 40.002 -3.3574 L39.9961 -3 L35.9824 -3 Q36.2344 -0.7324 38.2031 -0.7324 Q38.9238 -0.7324 39.9727 -1.1191 ZM36.0352 -3.8672 L38.8418 -3.8672 Q38.8418 -5.6426 37.5176 -5.6426 Q36.1875 -5.6426 36.0352 -3.8672 ZM41.9941 0 L41.9941 -6.3633 L43.1484 -6.3633 L43.1484 -5.168 Q44.0625 -6.5039 45.3867 -6.5039 Q46.2129 -6.5039 46.7051 -5.9795 Q47.1973 -5.4551 47.1973 -4.5703 L47.1973 0 L46.043 0 L46.043 -4.1953 Q46.043 -4.9043 45.835 -5.2061 Q45.627 -5.5078 45.1465 -5.5078 Q44.0859 -5.5078 43.1484 -4.1191 L43.1484 0 ZM51.3516 0.1465 Q50.4727 0.1465 49.9805 -0.3574 Q49.4883 -0.8613 49.4883 -1.7578 L49.4883 -5.4961 L48.6914 -5.4961 L48.6914 -6.3633 L49.4883 -6.3633 L49.4883 -7.5176 L50.6426 -7.6289 L50.6426 -6.3633 L52.3066 -6.3633 L52.3066 -5.4961 L50.6426 -5.4961 L50.6426 -1.9688 Q50.6426 -0.7207 51.7207 -0.7207 Q51.9492 -0.7207 52.2773 -0.7969 L52.2773 0 Q51.7441 0.1465 51.3516 0.1465 Z" style="stroke:none; clip-path:url(#clipPath17);"/>
    </g>
    <g style="font-family:sans-serif; text-rendering:optimizeLegibility;" transform="matrix(1.3333,0,0,1.3333,327.0909,-364.2424) translate(96.2664,390.0286)">
      <path d="M3.7617 0.2168 Q2.4199 0.2168 1.5908 -1.0459 Q0.7617 -2.3086 0.7617 -4.3418 Q0.7617 -6.3926 1.5967 -7.6406 Q2.4316 -8.8887 3.7969 -8.8887 Q5.1621 -8.8887 5.9971 -7.6406 Q6.832 -6.3926 6.832 -4.3594 Q6.832 -2.2734 5.9971 -1.0283 Q5.1621 0.2168 3.7617 0.2168 ZM3.7734 -0.6504 Q5.6074 -0.6504 5.6074 -4.377 Q5.6074 -8.0215 3.7969 -8.0215 Q1.9922 -8.0215 1.9922 -4.3418 Q1.9922 -0.6504 3.7734 -0.6504 ZM8.7598 0 L8.7598 -1.4473 L10.207 -1.4473 L10.207 0 ZM12.5566 0 L12.5566 -1.4473 L14.0039 -1.4473 L14.0039 0 ZM16.9863 0 L16.9863 -0.8672 L18.7207 -0.8672 L18.7207 -7.7109 L16.9863 -7.2773 L16.9863 -8.168 L19.8809 -8.8887 L19.8809 -0.8672 L21.6152 -0.8672 L21.6152 0 Z" style="stroke:none; clip-path:url(#clipPath18);"/>
    </g>
    <g style="font-family:sans-serif; text-rendering:optimizeLegibility;" transform="matrix(1.3333,0,0,1.3333,327.0909,-364.2424)">
      <line x1="150.2971" x2="215.5909" y1="511.7242" style="fill:none; clip-path:url(#clipPath2);" y2="511.7242"/>
      <line x1="215.5909" x2="215.5909" y1="511.7242" style="fill:none; clip-path:url(#clipPath2);" y2="460.0977"/>
      <line x1="215.5909" x2="150.2971" y1="460.0977" style="fill:none; clip-path:url(#clipPath2);" y2="460.0977"/>
      <line x1="150.2971" x2="160.6895" y1="511.7242" style="fill:none; clip-path:url(#clipPath2);" y2="505.7242"/>
      <line x1="150.2971" x2="160.6895" y1="511.7242" style="fill:none; clip-path:url(#clipPath2);" y2="517.7242"/>
    </g>
    <g style="font-family:sans-serif; text-rendering:optimizeLegibility;" transform="matrix(1.3333,0,0,1.3333,327.0909,-364.2424) translate(158.7532,498.6578)">
      <path d="M0.8672 -3.0352 L0.8672 -3.9023 L6.0703 -3.9023 L6.0703 -3.0352 ZM11.8945 0 L11.8945 -6.3633 L13.0488 -6.3633 L13.0488 -5.168 Q13.9629 -6.5039 15.2871 -6.5039 Q16.1133 -6.5039 16.6055 -5.9795 Q17.0977 -5.4551 17.0977 -4.5703 L17.0977 0 L15.9434 0 L15.9434 -4.1953 Q15.9434 -4.9043 15.7354 -5.2061 Q15.5273 -5.5078 15.0469 -5.5078 Q13.9863 -5.5078 13.0488 -4.1191 L13.0488 0 ZM24.0059 -0.2051 Q22.8457 0.1465 22.0195 0.1465 Q20.6133 0.1465 19.7256 -0.7881 Q18.8379 -1.7227 18.8379 -3.2109 Q18.8379 -4.6582 19.6201 -5.584 Q20.4023 -6.5098 21.6211 -6.5098 Q22.7754 -6.5098 23.4053 -5.6895 Q24.0352 -4.8691 24.0352 -3.3574 L24.0293 -3 L20.0156 -3 Q20.2676 -0.7324 22.2363 -0.7324 Q22.957 -0.7324 24.0059 -1.1191 ZM20.0684 -3.8672 L22.875 -3.8672 Q22.875 -5.6426 21.5508 -5.6426 Q20.2207 -5.6426 20.0684 -3.8672 ZM25.3887 0 L27.8086 -3.2871 L25.459 -6.3633 L26.8301 -6.3633 L28.6875 -3.9141 L30.3691 -6.3633 L31.4941 -6.3633 L29.291 -3.1348 L31.6875 0 L30.3164 0 L28.4004 -2.5195 L26.5488 0 ZM35.2969 0.1465 Q34.418 0.1465 33.9258 -0.3574 Q33.4336 -0.8613 33.4336 -1.7578 L33.4336 -5.4961 L32.6367 -5.4961 L32.6367 -6.3633 L33.4336 -6.3633 L33.4336 -7.5176 L34.5879 -7.6289 L34.5879 -6.3633 L36.252 -6.3633 L36.252 -5.4961 L34.5879 -5.4961 L34.5879 -1.9688 Q34.5879 -0.7207 35.666 -0.7207 Q35.8945 -0.7207 36.2227 -0.7969 L36.2227 0 Q35.6895 0.1465 35.2969 0.1465 Z" style="stroke:none; clip-path:url(#clipPath19);"/>
    </g>
    <g style="font-family:sans-serif; text-rendering:optimizeLegibility;" transform="matrix(1.3333,0,0,1.3333,327.0909,-364.2424) translate(160.8426,531.9306)">
      <path d="M3.7617 0.2168 Q2.4199 0.2168 1.5908 -1.0459 Q0.7617 -2.3086 0.7617 -4.3418 Q0.7617 -6.3926 1.5967 -7.6406 Q2.4316 -8.8887 3.7969 -8.8887 Q5.1621 -8.8887 5.9971 -7.6406 Q6.832 -6.3926 6.832 -4.3594 Q6.832 -2.2734 5.9971 -1.0283 Q5.1621 0.2168 3.7617 0.2168 ZM3.7734 -0.6504 Q5.6074 -0.6504 5.6074 -4.377 Q5.6074 -8.0215 3.7969 -8.0215 Q1.9922 -8.0215 1.9922 -4.3418 Q1.9922 -0.6504 3.7734 -0.6504 ZM8.7598 0 L8.7598 -1.4473 L10.207 -1.4473 L10.207 0 ZM12.5566 0 L12.5566 -1.4473 L14.0039 -1.4473 L14.0039 0 ZM16.9863 0 L16.9863 -0.8672 L18.7207 -0.8672 L18.7207 -7.7109 L16.9863 -7.2773 L16.9863 -8.168 L19.8809 -8.8887 L19.8809 -0.8672 L21.6152 -0.8672 L21.6152 0 Z" style="stroke:none; clip-path:url(#clipPath20);"/>
    </g>
    <g style="font-family:sans-serif; text-rendering:optimizeLegibility;" transform="matrix(1.3333,0,0,1.3333,327.0909,-364.2424)">
      <line x1="-9" x2="-76.2273" y1="460.0977" style="fill:none; clip-path:url(#clipPath2);" y2="460.0977"/>
      <line x1="-76.2273" x2="-76.2273" y1="460.0977" style="fill:none; clip-path:url(#clipPath2);" y2="505.7969"/>
      <line x1="-76.2273" x2="-9" y1="505.7969" style="fill:none; clip-path:url(#clipPath2);" y2="505.7969"/>
      <line x1="-9" x2="-19.3923" y1="505.7969" style="fill:none; clip-path:url(#clipPath2);" y2="511.7969"/>
      <line x1="-9" x2="-19.3923" y1="505.7969" style="fill:none; clip-path:url(#clipPath2);" y2="499.7969"/>
    </g>
    <g style="font-family:sans-serif; text-rendering:optimizeLegibility;" transform="matrix(1.3333,0,0,1.3333,327.0909,-364.2424) translate(-54.5,492.7305)">
      <path d="M0.8672 -3.0352 L0.8672 -3.9023 L6.0703 -3.9023 L6.0703 -3.0352 ZM11.8945 2.3145 L11.8945 -6.3633 L13.0488 -6.3633 L13.0488 -5.168 Q13.7578 -6.5039 15.1758 -6.5039 Q16.3242 -6.5039 16.9834 -5.666 Q17.6426 -4.8281 17.6426 -3.375 Q17.6426 -1.793 16.8955 -0.8232 Q16.1484 0.1465 14.9297 0.1465 Q13.7988 0.1465 13.0488 -0.7207 L13.0488 2.3145 ZM13.0488 -1.5176 Q13.9395 -0.7207 14.748 -0.7207 Q16.4121 -0.7207 16.4121 -3.2578 Q16.4121 -5.4961 14.9355 -5.4961 Q13.9688 -5.4961 13.0488 -4.4473 ZM19.4473 0 L19.4473 -6.3633 L20.6016 -6.3633 L20.6016 -5.168 Q21.2871 -6.5039 22.5938 -6.5039 Q22.7695 -6.5039 22.9629 -6.4746 L22.9629 -5.3965 Q22.6641 -5.4961 22.4355 -5.4961 Q21.3398 -5.4961 20.6016 -4.1953 L20.6016 0 ZM29.0215 -0.2051 Q27.8613 0.1465 27.0352 0.1465 Q25.6289 0.1465 24.7412 -0.7881 Q23.8535 -1.7227 23.8535 -3.2109 Q23.8535 -4.6582 24.6357 -5.584 Q25.418 -6.5098 26.6367 -6.5098 Q27.791 -6.5098 28.4209 -5.6895 Q29.0508 -4.8691 29.0508 -3.3574 L29.0449 -3 L25.0312 -3 Q25.2832 -0.7324 27.252 -0.7324 Q27.9727 -0.7324 29.0215 -1.1191 ZM25.084 -3.8672 L27.8906 -3.8672 Q27.8906 -5.6426 26.5664 -5.6426 Q25.2363 -5.6426 25.084 -3.8672 ZM32.3613 0 L29.9941 -6.3633 L31.1484 -6.3633 L33 -1.4121 L34.9512 -6.3633 L36.0293 -6.3633 L33.5156 0 Z" style="stroke:none; clip-path:url(#clipPath21);"/>
    </g>
    <g style="font-family:sans-serif; text-rendering:optimizeLegibility;" transform="matrix(1.3333,0,0,1.3333,327.0909,-364.2424) translate(-39,528.7305)">
      <path d="M3.7617 0.2168 Q2.4199 0.2168 1.5908 -1.0459 Q0.7617 -2.3086 0.7617 -4.3418 Q0.7617 -6.3926 1.5967 -7.6406 Q2.4316 -8.8887 3.7969 -8.8887 Q5.1621 -8.8887 5.9971 -7.6406 Q6.832 -6.3926 6.832 -4.3594 Q6.832 -2.2734 5.9971 -1.0283 Q5.1621 0.2168 3.7617 0.2168 ZM3.7734 -0.6504 Q5.6074 -0.6504 5.6074 -4.377 Q5.6074 -8.0215 3.7969 -8.0215 Q1.9922 -8.0215 1.9922 -4.3418 Q1.9922 -0.6504 3.7734 -0.6504 ZM8.7598 0 L8.7598 -1.4473 L10.207 -1.4473 L10.207 0 ZM12.5566 0 L12.5566 -1.4473 L14.0039 -1.4473 L14.0039 0 ZM16.9863 0 L16.9863 -0.8672 L18.7207 -0.8672 L18.7207 -7.7109 L16.9863 -7.2773 L16.9863 -8.168 L19.8809 -8.8887 L19.8809 -0.8672 L21.6152 -0.8672 L21.6152 0 Z" style="stroke:none; clip-path:url(#clipPath22);"/>
    </g>
    <g transform="matrix(1.3333,0,0,1.3333,327.0909,-364.2424)" style="fill:rgb(255,255,204); text-rendering:geometricPrecision; font-family:sans-serif; shape-rendering:crispEdges; stroke:rgb(255,255,204); stroke-width:2;">
      <rect x="-235.3182" y="290.0455" width="102" style="clip-path:url(#clipPath2); stroke:none;" height="55.2656"/>
      <rect x="-235.3182" y="290.0455" width="102" style="clip-path:url(#clipPath2); fill:none; stroke:black;" height="55.2656"/>
    </g>
    <g style="text-rendering:optimizeLegibility; stroke-width:2; font-family:sans-serif;" transform="matrix(1.3333,0,0,1.3333,327.0909,-364.2424) translate(-225.3182,336.1783)">
      <path d="M4.3359 0 L4.3359 -3.0352 L1.3008 -3.0352 L1.3008 -3.9023 L4.3359 -3.9023 L4.3359 -6.9375 L5.2031 -6.9375 L5.2031 -3.9023 L8.2383 -3.9023 L8.2383 -3.0352 L5.2031 -3.0352 L5.2031 0 ZM14.4902 2.3145 L14.4902 -6.3633 L15.6445 -6.3633 L15.6445 -5.168 Q16.3535 -6.5039 17.7715 -6.5039 Q18.9199 -6.5039 19.5791 -5.666 Q20.2383 -4.8281 20.2383 -3.375 Q20.2383 -1.793 19.4912 -0.8232 Q18.7441 0.1465 17.5254 0.1465 Q16.3945 0.1465 15.6445 -0.7207 L15.6445 2.3145 ZM15.6445 -1.5176 Q16.5352 -0.7207 17.3438 -0.7207 Q19.0078 -0.7207 19.0078 -3.2578 Q19.0078 -5.4961 17.5312 -5.4961 Q16.5645 -5.4961 15.6445 -4.4473 ZM22.043 0 L22.043 -9.252 L23.1973 -9.252 L23.1973 0 ZM28.793 -0.8086 Q27.7559 0.1465 26.7949 0.1465 Q26.0039 0.1465 25.4824 -0.3486 Q24.9609 -0.8438 24.9609 -1.5996 Q24.9609 -2.6426 25.8369 -3.2021 Q26.7129 -3.7617 28.3477 -3.7617 L28.623 -3.7617 L28.623 -4.5293 Q28.623 -5.6367 27.4863 -5.6367 Q26.5723 -5.6367 25.5117 -5.0742 L25.5117 -6.0293 Q26.6777 -6.5039 27.6973 -6.5039 Q28.7637 -6.5039 29.2705 -6.0234 Q29.7773 -5.543 29.7773 -4.5293 L29.7773 -1.6465 Q29.7773 -0.6562 30.3867 -0.6562 Q30.4629 -0.6562 30.6094 -0.6797 L30.6914 -0.041 Q30.2988 0.1465 29.8242 0.1465 Q29.0156 0.1465 28.793 -0.8086 ZM28.623 -1.4355 L28.623 -3.082 L28.2363 -3.0938 Q27.2871 -3.0938 26.7012 -2.7334 Q26.1152 -2.373 26.1152 -1.7871 Q26.1152 -1.3711 26.4082 -1.084 Q26.7012 -0.7969 27.123 -0.7969 Q27.8438 -0.7969 28.623 -1.4355 ZM32.5078 2.3145 L33.5391 0 L31.0781 -6.3633 L32.3262 -6.3633 L34.1484 -1.5703 L36.0938 -6.3633 L37.1836 -6.3633 L33.709 2.3145 ZM40.7227 0.9375 L40.7227 1.7344 Q39.457 0.873 38.7158 -0.6064 Q37.9746 -2.0859 37.9746 -3.7617 Q37.9746 -5.4316 38.7158 -6.9111 Q39.457 -8.3906 40.7227 -9.252 L40.7227 -8.4551 Q39.8613 -7.5176 39.4951 -6.4395 Q39.1289 -5.3613 39.1289 -3.7617 Q39.1289 -2.1562 39.4951 -1.0781 Q39.8613 0 40.7227 0.9375 ZM41.5898 0.9375 L41.5898 1.7344 Q42.8555 0.873 43.5967 -0.6064 Q44.3379 -2.0859 44.3379 -3.7617 Q44.3379 -5.4316 43.5967 -6.9111 Q42.8555 -8.3906 41.5898 -9.252 L41.5898 -8.4551 Q42.4512 -7.5176 42.8174 -6.4395 Q43.1836 -5.3613 43.1836 -3.7617 Q43.1836 -2.1562 42.8174 -1.0781 Q42.4512 0 41.5898 0.9375 ZM50.1738 0 L50.1738 -1.1543 L51.3281 -1.1543 L51.3281 0 ZM50.1738 -5.2031 L50.1738 -6.3633 L51.3281 -6.3633 L51.3281 -5.2031 ZM58.9219 0 L56.5547 -6.3633 L57.709 -6.3633 L59.5605 -1.4121 L61.5117 -6.3633 L62.5898 -6.3633 L60.0762 0 ZM66.3047 0.1465 Q64.9395 0.1465 64.125 -0.7588 Q63.3105 -1.6641 63.3105 -3.1816 Q63.3105 -4.7168 64.1279 -5.6104 Q64.9453 -6.5039 66.3457 -6.5039 Q67.7461 -6.5039 68.5635 -5.6104 Q69.3809 -4.7168 69.3809 -3.1934 Q69.3809 -1.6348 68.5605 -0.7441 Q67.7402 0.1465 66.3047 0.1465 ZM66.3223 -0.7207 Q68.1562 -0.7207 68.1562 -3.1934 Q68.1562 -5.6367 66.3457 -5.6367 Q64.541 -5.6367 64.541 -3.1816 Q64.541 -0.7207 66.3223 -0.7207 ZM71.1855 0 L71.1855 -6.3633 L72.3398 -6.3633 L72.3398 0 ZM71.1855 -7.5176 L71.1855 -8.6719 L72.3398 -8.6719 L72.3398 -7.5176 ZM78.7383 0 L78.7383 -1.1953 Q78.0352 0.1465 76.6172 0.1465 Q75.4688 0.1465 74.8096 -0.6914 Q74.1504 -1.5293 74.1504 -2.9824 Q74.1504 -4.5703 74.8975 -5.5371 Q75.6445 -6.5039 76.8633 -6.5039 Q77.9941 -6.5039 78.7383 -5.6367 L78.7383 -9.252 L79.8984 -9.252 L79.8984 0 ZM78.7383 -4.8457 Q77.8418 -5.6367 77.0391 -5.6367 Q75.3809 -5.6367 75.3809 -3.0996 Q75.3809 -0.8672 76.8574 -0.8672 Q77.8184 -0.8672 78.7383 -1.916 Z" style="stroke:none; clip-path:url(#clipPath23);"/>
    </g>
    <g style="font-family:sans-serif; text-rendering:optimizeLegibility;" transform="matrix(1.3333,0,0,1.3333,327.0909,-364.2424)">
      <line x1="-235.3182" x2="-133.3182" y1="320.1783" style="fill:none; clip-path:url(#clipPath2);" y2="320.1783"/>
      <line x1="-235.3182" x2="-133.3182" y1="312.1783" style="fill:none; clip-path:url(#clipPath2);" y2="312.1783"/>
    </g>
    <g style="text-rendering:optimizeLegibility; font-weight:bold; font-family:sans-serif;" transform="matrix(1.3333,0,0,1.3333,327.0909,-364.2424) translate(-201.8265,306.0455)">
      <path d="M8.0098 -0.2051 Q6.3809 0.2168 5.1973 0.2168 Q2.9531 0.2168 1.749 -0.9639 Q0.5449 -2.1445 0.5449 -4.3477 Q0.5449 -6.5332 1.749 -7.7109 Q2.9531 -8.8887 5.1797 -8.8887 Q6.6035 -8.8887 8.0039 -8.5547 L8.0039 -7.1426 Q6.3809 -7.6992 5.3379 -7.6992 Q3.9609 -7.6992 3.2109 -6.8203 Q2.4609 -5.9414 2.4609 -4.3301 Q2.4609 -2.7715 3.2637 -1.8838 Q4.0664 -0.9961 5.4785 -0.9961 Q5.7891 -0.9961 6.2051 -1.084 L6.2051 -3.9375 L8.0098 -3.9375 ZM13.1836 -0.6914 Q12.3164 0.1465 11.3262 0.1465 Q10.4824 0.1465 9.9551 -0.3691 Q9.4277 -0.8848 9.4277 -1.7051 Q9.4277 -2.7715 10.2803 -3.3486 Q11.1328 -3.9258 12.7207 -3.9258 L13.1836 -3.9258 L13.1836 -4.5117 Q13.1836 -5.5137 12.041 -5.5137 Q11.0273 -5.5137 9.9902 -4.9395 L9.9902 -6.1348 Q11.168 -6.5801 12.3223 -6.5801 Q14.8477 -6.5801 14.8477 -4.5703 L14.8477 -1.7227 Q14.8477 -0.9668 15.334 -0.9668 Q15.4219 -0.9668 15.5625 -0.9902 L15.6035 -0.0176 Q15.0527 0.1465 14.6309 0.1465 Q13.5645 0.1465 13.2598 -0.6914 ZM13.1836 -1.623 L13.1836 -2.9297 L12.7734 -2.9297 Q11.0918 -2.9297 11.0918 -1.875 Q11.0918 -1.5176 11.335 -1.2744 Q11.5781 -1.0312 11.9355 -1.0312 Q12.5449 -1.0312 13.1836 -1.623 ZM17.0859 0 L17.0859 -6.4336 L18.75 -6.4336 L18.75 -5.2207 Q19.5117 -6.5801 20.918 -6.5801 Q21.6445 -6.5801 22.1133 -6.2227 Q22.582 -5.8652 22.6875 -5.2207 Q23.5898 -6.5801 24.8672 -6.5801 Q26.6309 -6.5801 26.6309 -4.6348 L26.6309 0 L24.9668 0 L24.9668 -4.0664 Q24.9668 -5.209 24.2051 -5.209 Q23.4258 -5.209 22.6875 -4.084 L22.6875 0 L21.0234 0 L21.0234 -4.0664 Q21.0234 -5.2148 20.2559 -5.2148 Q19.4883 -5.2148 18.75 -4.084 L18.75 0 ZM33.9609 -0.2168 Q32.7246 0.1465 31.6172 0.1465 Q30.0059 0.1465 29.0742 -0.7676 Q28.1426 -1.6816 28.1426 -3.2637 Q28.1426 -4.7578 28.9951 -5.6689 Q29.8477 -6.5801 31.248 -6.5801 Q32.6602 -6.5801 33.3105 -5.6895 Q33.9609 -4.7988 33.9609 -2.8711 L29.9707 -2.8711 Q30.1465 -1.0312 31.9922 -1.0312 Q32.8652 -1.0312 33.9609 -1.4355 ZM29.9473 -3.8496 L32.2559 -3.8496 Q32.2559 -5.4961 31.1953 -5.4961 Q30.1172 -5.4961 29.9473 -3.8496 Z" style="stroke:none; clip-path:url(#clipPath24);"/>
    </g>
    <g style="text-rendering:optimizeLegibility; font-weight:bold; font-family:sans-serif;" transform="matrix(1.3333,0,0,1.3333,327.0909,-364.2424)">
      <line x1="-133.3182" x2="-9.4091" y1="329.1364" style="fill:none; clip-path:url(#clipPath2);" y2="329.1364"/>
      <line x1="-9.4091" x2="-19.8014" y1="329.1364" style="fill:none; clip-path:url(#clipPath2);" y2="335.1364"/>
      <line x1="-9.4091" x2="-19.8014" y1="329.1364" style="fill:none; clip-path:url(#clipPath2);" y2="323.1364"/>
    </g>
    <g style="font-family:sans-serif; text-rendering:optimizeLegibility;" transform="matrix(1.3333,0,0,1.3333,327.0909,-364.2424) translate(-100.4297,322.4336)">
      <path d="M0.8672 -3.0352 L0.8672 -3.9023 L6.0703 -3.9023 L6.0703 -3.0352 ZM11.918 2.1152 L12.0527 1.1133 Q13.0547 1.5879 14.0273 1.5879 Q15.9785 1.5879 15.9785 -0.4805 L15.9785 -1.4824 Q15.3398 -0.1465 13.8809 -0.1465 Q12.7383 -0.1465 12.0645 -0.9785 Q11.3906 -1.8105 11.3906 -3.2227 Q11.3906 -4.6758 12.1582 -5.5898 Q12.9258 -6.5039 14.1445 -6.5039 Q15.2109 -6.5039 15.9785 -5.6367 L15.9785 -6.3633 L17.1387 -6.3633 L17.1387 -1.7344 Q17.1387 -0.2402 16.9834 0.4775 Q16.8281 1.1953 16.4004 1.6523 Q15.6445 2.4551 14.0508 2.4551 Q12.9375 2.4551 11.918 2.1152 ZM15.9785 -2.2031 L15.9785 -4.8457 Q15.2168 -5.6367 14.3203 -5.6367 Q13.5234 -5.6367 13.0723 -4.998 Q12.6211 -4.3594 12.6211 -3.2461 Q12.6211 -1.1543 14.0918 -1.1543 Q15.0938 -1.1543 15.9785 -2.2031 ZM22.6582 -0.8086 Q21.6211 0.1465 20.6602 0.1465 Q19.8691 0.1465 19.3477 -0.3486 Q18.8262 -0.8438 18.8262 -1.5996 Q18.8262 -2.6426 19.7021 -3.2021 Q20.5781 -3.7617 22.2129 -3.7617 L22.4883 -3.7617 L22.4883 -4.5293 Q22.4883 -5.6367 21.3516 -5.6367 Q20.4375 -5.6367 19.377 -5.0742 L19.377 -6.0293 Q20.543 -6.5039 21.5625 -6.5039 Q22.6289 -6.5039 23.1357 -6.0234 Q23.6426 -5.543 23.6426 -4.5293 L23.6426 -1.6465 Q23.6426 -0.6562 24.252 -0.6562 Q24.3281 -0.6562 24.4746 -0.6797 L24.5566 -0.041 Q24.1641 0.1465 23.6895 0.1465 Q22.8809 0.1465 22.6582 -0.8086 ZM22.4883 -1.4355 L22.4883 -3.082 L22.1016 -3.0938 Q21.1523 -3.0938 20.5664 -2.7334 Q19.9805 -2.373 19.9805 -1.7871 Q19.9805 -1.3711 20.2734 -1.084 Q20.5664 -0.7969 20.9883 -0.7969 Q21.709 -0.7969 22.4883 -1.4355 ZM26.0039 0 L26.0039 -6.3633 L27.1582 -6.3633 L27.1582 -5.168 Q28.002 -6.5039 29.3262 -6.5039 Q30.6035 -6.5039 31.0664 -5.168 Q31.8867 -6.5098 33.1992 -6.5098 Q34.043 -6.5098 34.5059 -6.0146 Q34.9688 -5.5195 34.9688 -4.6289 L34.9688 0 L33.8086 0 L33.8086 -4.4473 Q33.8086 -5.5371 32.9473 -5.5371 Q32.0508 -5.5371 31.0664 -4.2656 L31.0664 0 L29.9062 0 L29.9062 -4.4473 Q29.9062 -5.543 29.0273 -5.543 Q28.1543 -5.543 27.1582 -4.2656 L27.1582 0 ZM41.8711 -0.2051 Q40.7109 0.1465 39.8848 0.1465 Q38.4785 0.1465 37.5908 -0.7881 Q36.7031 -1.7227 36.7031 -3.2109 Q36.7031 -4.6582 37.4854 -5.584 Q38.2676 -6.5098 39.4863 -6.5098 Q40.6406 -6.5098 41.2705 -5.6895 Q41.9004 -4.8691 41.9004 -3.3574 L41.8945 -3 L37.8809 -3 Q38.1328 -0.7324 40.1016 -0.7324 Q40.8223 -0.7324 41.8711 -1.1191 ZM37.9336 -3.8672 L40.7402 -3.8672 Q40.7402 -5.6426 39.416 -5.6426 Q38.0859 -5.6426 37.9336 -3.8672 ZM42.7383 2.0215 L42.7383 1.1543 L48.7383 1.1543 L48.7383 2.0215 ZM51.5801 0.1465 Q50.7891 0.1465 49.6582 -0.2227 L49.6582 -1.2832 Q50.7891 -0.7207 51.627 -0.7207 Q52.125 -0.7207 52.4531 -0.9902 Q52.7812 -1.2598 52.7812 -1.6641 Q52.7812 -2.2559 51.8613 -2.6426 L51.1875 -2.9297 Q49.6934 -3.5508 49.6934 -4.7168 Q49.6934 -5.5488 50.2822 -6.0264 Q50.8711 -6.5039 51.8965 -6.5039 Q52.4297 -6.5039 53.2148 -6.3574 L53.4551 -6.3105 L53.4551 -5.3496 Q52.4883 -5.6367 51.9199 -5.6367 Q50.8066 -5.6367 50.8066 -4.8281 Q50.8066 -4.3066 51.6504 -3.9492 L52.207 -3.7148 Q53.1504 -3.3164 53.543 -2.874 Q53.9355 -2.4316 53.9355 -1.7695 Q53.9355 -0.9316 53.2734 -0.3926 Q52.6113 0.1465 51.5801 0.1465 ZM58.4941 0.1465 Q57.2051 0.1465 56.3555 -0.8086 Q55.5059 -1.7637 55.5059 -3.2168 Q55.5059 -4.7695 56.3467 -5.6367 Q57.1875 -6.5039 58.6934 -6.5039 Q59.4375 -6.5039 60.3574 -6.2988 L60.3574 -5.332 Q59.3789 -5.6191 58.7637 -5.6191 Q57.8789 -5.6191 57.3428 -4.9541 Q56.8066 -4.2891 56.8066 -3.1816 Q56.8066 -2.1094 57.3574 -1.4473 Q57.9082 -0.7852 58.7988 -0.7852 Q59.5898 -0.7852 60.4277 -1.1895 L60.4277 -0.1934 Q59.3086 0.1465 58.4941 0.1465 ZM64.6465 0.1465 Q63.2812 0.1465 62.4668 -0.7588 Q61.6523 -1.6641 61.6523 -3.1816 Q61.6523 -4.7168 62.4697 -5.6104 Q63.2871 -6.5039 64.6875 -6.5039 Q66.0879 -6.5039 66.9053 -5.6104 Q67.7227 -4.7168 67.7227 -3.1934 Q67.7227 -1.6348 66.9023 -0.7441 Q66.082 0.1465 64.6465 0.1465 ZM64.6641 -0.7207 Q66.498 -0.7207 66.498 -3.1934 Q66.498 -5.6367 64.6875 -5.6367 Q62.8828 -5.6367 62.8828 -3.1816 Q62.8828 -0.7207 64.6641 -0.7207 ZM69.5273 0 L69.5273 -6.3633 L70.6816 -6.3633 L70.6816 -5.168 Q71.3672 -6.5039 72.6738 -6.5039 Q72.8496 -6.5039 73.043 -6.4746 L73.043 -5.3965 Q72.7441 -5.4961 72.5156 -5.4961 Q71.4199 -5.4961 70.6816 -4.1953 L70.6816 0 ZM79.1016 -0.2051 Q77.9414 0.1465 77.1152 0.1465 Q75.709 0.1465 74.8213 -0.7881 Q73.9336 -1.7227 73.9336 -3.2109 Q73.9336 -4.6582 74.7158 -5.584 Q75.498 -6.5098 76.7168 -6.5098 Q77.8711 -6.5098 78.501 -5.6895 Q79.1309 -4.8691 79.1309 -3.3574 L79.125 -3 L75.1113 -3 Q75.3633 -0.7324 77.332 -0.7324 Q78.0527 -0.7324 79.1016 -1.1191 ZM75.1641 -3.8672 L77.9707 -3.8672 Q77.9707 -5.6426 76.6465 -5.6426 Q75.3164 -5.6426 75.1641 -3.8672 Z" style="stroke:none; clip-path:url(#clipPath25);"/>
    </g>
    <g style="font-family:sans-serif; text-rendering:optimizeLegibility;" transform="matrix(1.3333,0,0,1.3333,327.0909,-364.2424) translate(-32.4091,352.07)">
      <path d="M1.8047 0 L1.8047 -0.8672 L3.5391 -0.8672 L3.5391 -7.7109 L1.8047 -7.2773 L1.8047 -8.168 L4.6992 -8.8887 L4.6992 -0.8672 L6.4336 -0.8672 L6.4336 0 Z" style="stroke:none; clip-path:url(#clipPath26);"/>
    </g>
  </g>
</svg>