<svg id="レイヤー_1" data-name="レイヤー 1" xmlns="http://www.w3.org/2000/svg" viewBox="0 0 841.89 332"><defs><style>.cls-1{fill:#231815;}.cls-2{fill:#a3ca0f;}</style></defs><title>アートボード 1</title><path class="cls-1" d="M77.21,182.27c-3.94,15.12-13,23-29.63,23C28.83,205.26,11,195.11,11,166.63S30.08,128,47.58,128c19,0,27.14,12.22,29,22.48L58.05,154.1c-.63-3.73-2.49-11-11.6-11-5.49,0-14.09,3.62-14.09,22.89,0,12.12,2.49,24.13,14.09,24.13,8.28,0,10.66-7.15,12.22-12Z"/><path class="cls-1" d="M86,123h19.47v26.41c6.94-5.8,12-9.84,20.51-9.84,15.44,0,15.44,12.43,15.44,19.79V203.5H122V167c0-4.66,0-11.5-6-11.5-3.53,0-6,2.18-10.47,6.32V203.5H86Z"/><path class="cls-1" d="M175.92,190a5.9,5.9,0,0,1-6.22-6.11c0-5.18,3.83-8.39,9.84-8.39,2,0,4.45.2,6.73.41v9C183.69,187.14,180.27,190,175.92,190Zm29.52-23.62c0-15.74-5.6-26.83-25.9-26.83-21.34,0-25.79,13.57-26.72,16.47l17.3,5c.72-4,2.79-8.39,8.49-8.39,6.11,0,7.66,3.53,7.66,9.53v2c-2.07-.21-4.86-.41-7.35-.41-14.71,0-28.07,6.83-28.07,22.37,0,7.46,3.94,18.85,17.81,18.85,7.36,0,13.37-5.38,17.61-9.53h.31c0,2.28.32,5.39.42,8.08h18.85c-.31-2.9-.41-7.25-.41-11Z"/><path class="cls-1" d="M255.36,165.07c0-5.28-1.24-9.53-6-9.53-3.73,0-7.66,3.73-10.46,6.32V203.5H219.42V141h19.47v8.39c6.94-5.8,12-9.84,20.51-9.84,15.43,0,15.43,12.43,15.43,19.79V203.5H255.36Z"/><path class="cls-1" d="M303.21,160.1c0-5.8,4-7.77,9.12-7.77,5.9,0,8.6,3.21,8.6,7.56,0,5-3.94,7.67-8.91,7.67C306.84,167.56,303.21,164.24,303.21,160.1ZM346.41,141H322.48c-.62,0-1.87-.31-3.63-.62a63,63,0,0,0-7.66-.51c-8.6,0-25.17,2.79-25.17,19.67,0,12.33,8.7,15.75,13.36,17.82-3.11,1.45-6.32,3.83-6.32,9.12,0,3.93,1.76,5.49,3.42,6.52-3.11,1.66-12.22,5.18-12.22,15.54,0,9.94,11.49,15.85,28.17,15.85,17.61,0,32.53-4.67,32.53-19.68,0-8.91-6.43-13.68-14-15.65l-20.09-5c-2.7-.62-3-1.55-3-2.69a2.45,2.45,0,0,1,1.25-1.86,36.21,36.21,0,0,0,5.28.41c11.7,0,23.72-6.94,23.72-17.71,0-5.6-1.55-8.7-3.83-10.67h12.12Zm-27.87,60.6c6.22,1.55,7.87,2.28,7.87,5.8,0,2.69-3,5.18-10.66,5.18-10.46,0-14.61-1.76-14.61-6.94,0-4.15,3.11-6.32,4.45-7.36Z"/><path class="cls-1" d="M370.12,164.87c0-3.84,1-12.23,10.15-12.23,8.29,0,9.22,8.29,9.43,12.23Zm9.43-25.28c-19.27,0-29.32,14.81-29.32,32.94,0,11.29,4.56,32.42,29.32,32.42,12.74,0,21-4.24,26.62-16l-16.47-5.39c-1.35,2.9-3.52,7.56-9.84,7.56-9.74,0-9.74-9.32-9.74-13.46h38.74v-5C408.86,149.43,395.91,139.59,379.55,139.59Z"/><path class="cls-1" d="M441.08,185.38c1,3,1.75,6,2.48,9h.52c.72-3,1.45-6,2.48-9L465,129.75h9.84L449.67,203.5H437.35l-24.56-73.75h10.47Z"/><path class="cls-1" d="M484.68,142.29h9.11V203.5h-9.11ZM484.16,123h10.15v9.12H484.16Z"/><path class="cls-1" d="M515.44,186.72c2.28,6.42,6.22,10.78,13.88,10.78,9.74,0,12.64-6.22,12.64-10.26,0-6.21-4.66-8.49-12.33-10.88l-4.56-1.45c-8.28-2.59-15.64-6.63-15.64-16.88,0-12.43,11.71-17,20.61-17,13.89,0,17.51,8.91,19.58,13.88l-8,2.8c-1.66-6.42-6.53-9.43-11.92-9.43-5.9,0-11.18,2.9-11.18,9.22,0,4.66,2.17,6.73,8.91,9.12l8.38,2.9c10.16,3.52,15.23,7.87,15.23,17.3,0,6.83-4.55,17.92-22,17.92-10.14,0-19.16-5.08-21.75-15.44Z"/><path class="cls-1" d="M564.75,142.29h9.11V203.5h-9.11ZM564.23,123h10.15v9.12H564.23Z"/><path class="cls-1" d="M611.56,148.29c12.94,0,16.26,12.64,16.26,24.45,0,12-3.32,24.76-16.26,24.76s-16.26-12.75-16.26-24.76C595.3,160.93,598.61,148.29,611.56,148.29Zm0,56.46c18.75,0,25.79-16.06,25.79-31.91,0-12.32-4-31.8-25.79-31.8-18.75,0-25.79,16.06-25.79,31.8C585.77,185.27,589.81,204.75,611.56,204.75Z"/><path class="cls-1" d="M648.54,142.29h9.11v9.94c5-4.45,11.39-11.19,20.72-11.19s15.22,5.7,15.12,17.3V203.5h-9.12V161.66c0-6.22-1.45-12.33-9-12.33-8.49,0-14,6.21-17.71,10.56V203.5h-9.11Z"/><path class="cls-2" d="M834.13,165.55a12.84,12.84,0,0,0-11.49-12.77L745.35,145q-1-.09-2-.09a20.61,20.61,0,1,0,0,41.22c.68,0,1.34,0,2-.1l77.29-7.74A12.85,12.85,0,0,0,834.13,165.55Z"/><path class="cls-2" d="M742.72,323.88A12.85,12.85,0,0,0,748,307.54L716.1,236.73c-.27-.59-.58-1.18-.91-1.76a20.61,20.61,0,1,0-35.7,20.61c.34.58.69,1.14,1.07,1.67l45.36,63.07A12.85,12.85,0,0,0,742.72,323.88Z"/><path class="cls-2" d="M559.9,323.88a12.85,12.85,0,0,0,16.8-3.56l45.36-63.07a18.91,18.91,0,0,0,1.06-1.67A20.6,20.6,0,1,0,587.44,235a19.73,19.73,0,0,0-.92,1.76l-31.94,70.81A12.85,12.85,0,0,0,559.9,323.88Z"/><path class="cls-2" d="M559.9,7.22a12.85,12.85,0,0,0-5.32,16.34l31.93,70.81c.28.59.58,1.18.92,1.76a20.61,20.61,0,0,0,35.69-20.61,19,19,0,0,0-1.07-1.67L576.7,10.78A12.85,12.85,0,0,0,559.9,7.22Z"/><path class="cls-2" d="M742.72,7.22a12.86,12.86,0,0,0-16.81,3.56L680.55,73.85c-.37.53-.73,1.09-1.06,1.67a20.61,20.61,0,1,0,35.69,20.61,19.77,19.77,0,0,0,.91-1.77L748,23.55A12.84,12.84,0,0,0,742.72,7.22Z"/></svg>